<svg width="193" height="41" viewBox="0 0 193 41" fill="none" xmlns="http://www.w3.org/2000/svg">
<path d="M26.5852 9.75H24.0343H19.9864H19.3532H8.63867V16.4894H19.3532V23.2288H8.63867V29.9682H19.3532H19.9864H24.2197H26.5852H26.5897V9.75H26.5852Z" fill="white"/>
<path d="M56.4807 9.75H53.9298H49.8819H49.2442H38.5342V16.4894H49.2442V23.2288H38.5342V29.9682H49.2442H49.8819H54.1107H56.4807H56.4852V9.75H56.4807Z" fill="white"/>
<path d="M32.5866 16.5448C34.425 16.5448 35.9154 15.0237 35.9154 13.1474C35.9154 11.2711 34.425 9.75 32.5866 9.75C30.7482 9.75 29.2578 11.2711 29.2578 13.1474C29.2578 15.0237 30.7482 16.5448 32.5866 16.5448Z" fill="white"/>
<path d="M32.5866 29.9913C34.425 29.9913 35.9154 28.4703 35.9154 26.5939C35.9154 24.7176 34.425 23.1965 32.5866 23.1965C30.7482 23.1965 29.2578 24.7176 29.2578 26.5939C29.2578 28.4703 30.7482 29.9913 32.5866 29.9913Z" fill="white"/>
<path d="M77.289 12.4963H79.2384V22.6393H77.289V12.4963ZM78.6814 16.6298H81.0413V18.2274H78.6814V16.6298ZM68.5531 13.9035H76.5414V15.4278H68.5531V13.9035ZM72.5546 15.9115C74.504 15.9115 75.8818 16.9815 75.8818 18.5352C75.8818 20.0889 74.504 21.1443 72.5546 21.1443C70.5905 21.1443 69.2127 20.0889 69.2127 18.5352C69.2127 16.9815 70.5905 15.9115 72.5546 15.9115ZM72.5546 17.3919C71.6898 17.3919 71.0888 17.8024 71.0888 18.5352C71.0888 19.2681 71.6898 19.6639 72.5546 19.6639C73.4194 19.6639 74.0203 19.2681 74.0203 18.5352C74.0203 17.8024 73.4194 17.3919 72.5546 17.3919ZM71.5725 12.467H73.522V14.651H71.5725V12.467ZM70.4879 24.2663H79.7221V25.82H70.4879V24.2663ZM70.4879 21.8771H72.4373V24.9405H70.4879V21.8771ZM82.709 13.0533H91.3129V14.607H82.709V13.0533ZM81.2139 17.7437H93.4969V19.2974H81.2139V17.7437ZM86.3587 18.843H88.3081V21.6866H86.3587V18.843ZM90.1403 13.0533H92.0605V14.138C92.0605 15.3106 92.0605 16.6737 91.6354 18.4619L89.7153 18.2714C90.1403 16.5272 90.1403 15.2813 90.1403 14.138V13.0533ZM82.4451 21.2029H92.0751V26.0545H90.1257V22.7419H82.4451V21.2029ZM103.153 12.4817H105.117V26.0985H103.153V12.4817ZM94.6663 21.2322H95.8388C98.6971 21.2322 100.309 21.1736 102.127 20.8365L102.303 22.4341C100.471 22.8006 98.7557 22.8592 95.8388 22.8592H94.6663V21.2322ZM94.6663 13.6836H101.218V15.252H96.601V21.8478H94.6663V13.6836ZM109.76 14.6217H111.314V16.1461C111.314 19.2828 110.039 22.3462 107.488 23.5041L106.389 21.9651C108.661 20.9537 109.76 18.4473 109.76 16.1461V14.6217ZM110.2 14.6217H111.739V16.1461C111.739 18.3447 112.824 20.6899 115.096 21.628L114.04 23.167C111.46 22.053 110.2 19.1655 110.2 16.1461V14.6217ZM106.931 13.7862H114.539V15.3839H106.931V13.7862ZM115.799 12.4817H117.763V26.0545H115.799V12.4817ZM119.768 17.8756H120.823C123.271 17.8756 124.752 17.861 126.481 17.6118L126.628 19.1215C124.854 19.3854 123.33 19.4 120.823 19.4H119.768V17.8756ZM119.768 13.2292H126.027V14.7389H121.703V18.8723H119.768V13.2292ZM121.219 15.5598H125.616V16.9962H121.219V15.5598ZM126.408 15.3546H128.914V16.8789H126.408V15.3546ZM128.548 12.4817H130.497V19.6639H128.548V12.4817ZM121.527 20.1622H130.497V23.7386H123.476V25.4389H121.542V22.3462H128.563V21.6426H121.527V20.1622ZM121.542 24.4862H130.878V25.9666H121.542V24.4862ZM141.106 12.4963H143.07V22.2436H141.106V12.4963ZM134.027 24.2663H143.407V25.82H134.027V24.2663ZM134.027 21.2615H135.976V24.8966H134.027V21.2615ZM135.683 13.3465C137.764 13.3465 139.362 14.7829 139.362 16.791C139.362 18.7844 137.764 20.2355 135.683 20.2355C133.601 20.2355 131.989 18.7844 131.989 16.791C131.989 14.7829 133.601 13.3465 135.683 13.3465ZM135.683 15.0321C134.671 15.0321 133.895 15.677 133.895 16.791C133.895 17.8903 134.671 18.5352 135.683 18.5352C136.68 18.5352 137.456 17.8903 137.456 16.791C137.456 15.677 136.68 15.0321 135.683 15.0321ZM144.43 18.7404H156.698V20.2795H144.43V18.7404ZM150.542 21.027C153.474 21.027 155.247 21.9504 155.247 23.5481C155.247 25.1458 153.474 26.0545 150.542 26.0545C147.611 26.0545 145.823 25.1458 145.823 23.5481C145.823 21.9504 147.611 21.027 150.542 21.027ZM150.542 22.5367C148.725 22.5367 147.801 22.8445 147.801 23.5481C147.801 24.237 148.725 24.5595 150.542 24.5595C152.36 24.5595 153.283 24.237 153.283 23.5481C153.283 22.8445 152.36 22.5367 150.542 22.5367ZM149.223 13.8741H150.953V14.2113C150.953 16.234 149.12 17.9196 145.617 18.2274L144.943 16.7177C147.919 16.4539 149.223 15.2666 149.223 14.2113V13.8741ZM150.176 13.8741H151.905V14.2113C151.905 15.2666 153.195 16.4539 156.185 16.7177L155.511 18.2274C152.023 17.9196 150.176 16.2487 150.176 14.2113V13.8741ZM145.544 13.112H155.599V14.651H145.544V13.112ZM164.742 15.3692H167.234V16.9229H164.742V15.3692ZM164.713 18.0515H167.19V19.5906H164.713V18.0515ZM157.12 13.625H164.566V15.164H157.12V13.625ZM160.931 15.5598C162.793 15.5598 164.112 16.5711 164.112 18.0222C164.112 19.488 162.793 20.4847 160.931 20.4847C159.07 20.4847 157.751 19.488 157.751 18.0222C157.751 16.5711 159.07 15.5598 160.931 15.5598ZM160.931 16.9962C160.11 16.9962 159.568 17.3626 159.568 18.0222C159.568 18.6965 160.11 19.0629 160.931 19.0629C161.737 19.0629 162.309 18.6965 162.309 18.0222C162.309 17.3626 161.737 16.9962 160.931 16.9962ZM159.964 12.3644H161.913V14.695H159.964V12.3644ZM166.486 12.4817H168.436V20.558H166.486V12.4817ZM159.348 21.0856H161.268V22.053H166.501V21.0856H168.436V25.9079H159.348V21.0856ZM161.268 23.5041V24.4129H166.501V23.5041H161.268ZM173.167 20.7338H175.116V22.9325H173.167V20.7338ZM179.103 12.4817H181.053V26.0545H179.103V12.4817ZM170.03 23.7973L169.796 22.2289C172.258 22.2143 175.541 22.2143 178.4 21.8332L178.532 23.2403C175.585 23.7826 172.434 23.7973 170.03 23.7973ZM170.06 13.9768H178.224V15.5011H170.06V13.9768ZM174.134 16.0435C176.142 16.0435 177.535 17.0695 177.535 18.5792C177.535 20.1036 176.142 21.1296 174.134 21.1296C172.156 21.1296 170.763 20.1036 170.763 18.5792C170.763 17.0695 172.156 16.0435 174.134 16.0435ZM174.134 17.5092C173.255 17.5092 172.625 17.8903 172.625 18.5792C172.625 19.2828 173.255 19.6639 174.134 19.6639C175.043 19.6639 175.673 19.2828 175.673 18.5792C175.673 17.8903 175.043 17.5092 174.134 17.5092ZM173.167 12.5403H175.116V14.8562H173.167V12.5403Z" fill="white"/>
</svg>
