<svg width="189" height="35" viewBox="0 0 189 35" fill="none" xmlns="http://www.w3.org/2000/svg">
<path d="M2.0932 17.4985V25.0775H0.467773V17.4985H2.0932ZM2.15057 21.2402L5.05722 17.4985H7.17984L4.01185 21.2402L7.03324 25.0775H4.90424L2.15057 21.2402Z" fill="white"/>
<path d="M7.97021 25.0775V17.4985H9.59564V25.0775H7.97021Z" fill="white"/>
<path d="M11.1128 25.0775V23.7326H14.5804C15.1413 23.7326 15.511 23.6752 15.6959 23.5605C15.9636 23.4011 16.0975 23.1589 16.0975 22.8338C16.0975 22.4641 15.9381 22.19 15.6258 22.0179C15.4473 21.9223 15.1605 21.8713 14.7716 21.8713H13.3629C12.5024 21.8713 11.8905 21.7119 11.508 21.406C11.2722 21.2084 11.0873 20.9661 10.9535 20.6666C10.8196 20.367 10.7559 20.0546 10.7559 19.7168C10.7559 19.1877 10.9088 18.7033 11.2212 18.2635C11.5271 17.8364 12.0116 17.5942 12.6809 17.5241C12.9104 17.5049 13.2418 17.4922 13.688 17.4922H17.4552V18.8308H14.0577C13.5541 18.8308 13.2163 18.8563 13.0506 18.9009C12.7128 18.9838 12.5406 19.2451 12.5406 19.6722C12.5406 20.0355 12.6809 20.2777 12.9677 20.4052C13.1589 20.4881 13.4777 20.5327 13.9175 20.5327H15.135C15.7596 20.5327 16.2186 20.5837 16.5245 20.6921C17.06 20.8705 17.4297 21.1956 17.6273 21.6482C17.793 22.0115 17.8695 22.4067 17.8695 22.8274C17.8695 23.2864 17.7611 23.7007 17.5508 24.0704C17.2576 24.5931 16.8114 24.899 16.2122 25.001C15.9254 25.0457 15.4919 25.0712 14.9119 25.0712H11.0937L11.1128 25.0775Z" fill="white"/>
<path d="M23.1346 17.4985H21.2734L18.1309 25.0775H20.024L22.204 19.3152L24.3776 25.0775H26.2771L23.1346 17.4985Z" fill="white"/>
<path d="M28.2026 12.7814L32.4479 17.7725C32.4734 17.8043 32.4989 17.8426 32.5243 17.8745L37.3369 23.4774C38.1847 24.459 37.8213 25.1921 36.521 25.0965L33.7355 24.8989C32.4351 24.8033 30.6822 23.9236 29.828 22.942L25.0155 17.339C24.1614 16.3574 24.2697 14.8531 25.2513 13.9989L26.915 12.5583C27.4441 12.2588 27.9094 12.4564 28.1899 12.7878L28.2026 12.7814Z" fill="url(#paint0_linear_2370_6825)"/>
<path d="M38.6558 9.43502L32.766 14.528C31.8099 15.3503 31.6824 16.7845 32.4473 17.7661L28.2021 12.7751C27.9216 12.4437 27.4499 12.2461 26.9272 12.5456L31.1534 8.88683C32.135 8.03268 34.0026 7.41438 35.303 7.51L38.0885 7.7076C39.3889 7.80321 39.6438 8.57449 38.6558 9.42864V9.43502Z" fill="url(#paint1_linear_2370_6825)"/>
<path d="M27.31 9.90674L24.397 6.50928C24.9962 7.20407 24.9197 8.25582 24.2313 8.855L20.088 12.4437C19.3932 13.0429 19.5781 13.5847 20.4896 13.6548L22.4529 13.795C23.3644 13.8588 24.6775 13.4253 25.3723 12.8261L28.6168 9.98961C28.2917 10.2701 27.5395 10.1745 27.31 9.91312V9.90674Z" fill="url(#paint2_linear_2370_6825)"/>
<path d="M29.6811 6.88543L26.0988 2.74218C25.4996 2.04738 24.263 1.42908 23.3515 1.36534L21.3946 1.22511C20.4831 1.16137 20.2218 1.6713 20.8209 2.35972L24.4033 6.50297L27.2717 9.86857C27.6222 10.2701 28.2852 10.2638 28.6166 9.98331L29.5154 9.23752C30.2102 8.63834 30.2867 7.58022 29.6875 6.8918L29.6811 6.88543Z" fill="url(#paint3_linear_2370_6825)"/>
<path d="M152.379 15.599C154.992 15.599 157.102 14.1648 157.102 12.3928C157.102 10.6207 154.986 9.18652 152.379 9.18652C149.772 9.18652 147.655 10.6207 147.655 12.3928C147.655 14.1648 149.772 15.599 152.379 15.599ZM152.379 10.5187C153.692 10.5187 154.756 11.3601 154.756 12.3928C154.756 13.4254 153.692 14.2668 152.379 14.2668C151.065 14.2668 150.001 13.4318 150.001 12.3928C150.001 11.3538 151.065 10.5187 152.379 10.5187Z" fill="white"/>
<path d="M122.42 15.5288C123.325 16.8865 125.307 18.3271 127.009 18.9199L127.806 17.3327C125.766 16.3383 123.548 14.4452 123.548 12.0102V11.2326H127.067V9.67725H117.716V11.2326H121.324V12.0293C121.324 14.6619 119.086 16.179 117.027 17.32L117.856 18.9454C119.265 18.3845 121.451 16.9566 122.42 15.5352" fill="white"/>
<path d="M132.752 22.5341C132.752 26.6136 145.82 26.6136 145.82 22.5341C145.82 18.4546 132.752 18.3654 132.752 22.5341ZM135.149 22.515C135.149 20.4752 143.417 20.4752 143.417 22.515C143.417 24.5547 135.149 24.5739 135.149 22.515Z" fill="white"/>
<path d="M80.9621 13.9289C80.9621 11.3855 78.9861 9.32666 76.5511 9.32666C74.1161 9.32666 72.1401 11.3855 72.1401 13.9289C72.1401 16.4722 74.1161 18.5311 76.5511 18.5311C78.9861 18.5311 80.9621 16.4722 80.9621 13.9289ZM74.3966 13.9289C74.3966 12.1186 75.3591 10.6461 76.5447 10.6461C77.7303 10.6461 78.6929 12.1186 78.6929 13.9289C78.6929 15.7391 77.7303 17.2116 76.5447 17.2116C75.3591 17.2116 74.3966 15.7391 74.3966 13.9289Z" fill="white"/>
<path d="M132.688 13.6292C132.688 15.1781 135.64 16.4339 139.286 16.4339C142.932 16.4339 145.883 15.1781 145.883 13.6292C145.883 12.8005 145.029 12.0548 143.684 11.5384H145.788V10.0214H140.478V8.99512H138.094V10.0214H132.784V11.5384H134.888C133.536 12.0548 132.688 12.7942 132.688 13.6292ZM139.286 12.4436C141.651 12.4436 143.569 12.9726 143.569 13.6292C143.569 14.2857 141.651 14.8148 139.286 14.8148C136.921 14.8148 135.002 14.2857 135.002 13.6292C135.002 12.9726 136.921 12.4436 139.286 12.4436Z" fill="white"/>
<path d="M46.6683 18.8498C49.1033 18.8498 51.0793 16.8738 51.0793 14.4388C51.0793 13.3424 50.6777 12.348 50.0148 11.5768H51.0028V10.0214H47.8603V8.97607H45.4572V10.0214H42.3338V11.5768H43.3091C42.6526 12.348 42.251 13.3488 42.251 14.4388C42.251 16.8738 44.227 18.8498 46.6619 18.8498M46.6683 11.3983C47.8539 11.3983 48.8164 12.7624 48.8164 14.4452C48.8164 16.128 47.8539 17.4921 46.6683 17.4921C45.4827 17.4921 44.5202 16.128 44.5202 14.4452C44.5202 12.7624 45.4827 11.3983 46.6683 11.3983Z" fill="white"/>
<path d="M110.704 19.0347H108.377C108.231 21.578 104.642 23.2034 102.417 23.7835L103.214 25.428C105.305 24.9053 107.944 23.8026 109.442 22.2664C109.442 22.2664 109.487 22.209 109.544 22.209C109.601 22.209 109.639 22.2664 109.639 22.2664C110.978 23.8153 113.885 24.9181 115.867 25.428L116.664 23.7835C114.446 23.2034 110.851 21.578 110.704 19.0347Z" fill="white"/>
<path d="M115.07 9.33936H113.483V17.5239C113.483 17.8808 113.77 18.1677 114.127 18.1677H115.682V9.95128C115.663 9.61982 115.402 9.3521 115.07 9.33936Z" fill="white"/>
<path d="M56.2487 10.3209H55.1396V9.35205H52.9341V18.1931C52.9341 18.5437 53.2209 18.8305 53.5715 18.8369H55.1396V12.0866H56.8861V10.952C56.8734 10.6078 56.5929 10.3273 56.2423 10.3273" fill="white"/>
<path d="M46.2155 23.216C45.865 23.216 45.5781 22.9355 45.5718 22.585V20.6918C45.5654 20.354 45.2977 20.0863 44.9662 20.0671H43.3535V22.6487C43.3535 23.9873 44.4563 25.0837 45.8076 25.0837H55.318V23.2224H46.2092L46.2155 23.216Z" fill="white"/>
<path d="M76.4426 23.216C76.0857 23.216 75.7988 22.9292 75.7988 22.5722V20.6855C75.7861 20.354 75.5247 20.0863 75.1933 20.0608H73.5742V22.6424C73.5742 23.9809 74.677 25.0773 76.0283 25.0773H85.545V23.216H76.4426Z" fill="white"/>
<path d="M121.597 23.216C121.24 23.216 120.954 22.9292 120.954 22.5722V20.7046C120.954 20.3604 120.686 20.0863 120.348 20.0608H118.735V22.6424C118.735 23.9809 119.838 25.0773 121.189 25.0773H130.706V23.216H121.597Z" fill="white"/>
<path d="M150.983 23.216C150.626 23.216 150.339 22.9292 150.339 22.5722V20.7046C150.339 20.3604 150.071 20.0863 149.733 20.0608H148.121V22.6424C148.121 23.9809 149.223 25.0773 150.575 25.0773H160.442V23.216H150.983Z" fill="white"/>
<path d="M146.38 17.8425C146.38 17.4856 146.094 17.1987 145.737 17.1987H132.198V18.1995C132.204 18.5501 132.491 18.8305 132.842 18.8305H146.387V17.8425H146.38Z" fill="white"/>
<path d="M71.0433 17.39V16.4658C71.0369 16.1152 70.7501 15.8347 70.3995 15.8347H69.4944C70.0171 14.5344 69.9979 13.1639 69.9979 11.7935V10.3274C69.9979 10.0151 69.7748 9.76008 69.4816 9.69634C69.4434 9.68997 69.3988 9.68359 69.3541 9.68359H58.2566V11.2389H67.7988V13.5528C67.7988 14.4579 67.7797 14.8722 67.3335 15.8475H57.377V16.759C57.377 17.1096 57.6574 17.39 58.0016 17.4028H63.0691V19.4808H57.8486V20.4051C57.8614 20.7365 58.1291 21.0042 58.4606 21.017H67.4546C67.8116 21.017 68.0984 21.3102 68.0984 21.6608V25.1092H70.3167V20.1246C70.3167 19.7676 70.0298 19.4808 69.6729 19.4808H65.2619V17.4028H71.0369L71.0433 17.39Z" fill="white"/>
<path d="M130.088 9.33938H128.501V18.2059C128.501 18.5629 128.788 18.8497 129.145 18.8497H130.7V9.96406C130.7 9.61985 130.42 9.34576 130.082 9.33301" fill="white"/>
<path d="M84.7478 9.33936H83.1606V18.2059C83.1606 18.5629 83.4475 18.8497 83.8044 18.8497H85.3598V9.95128C85.347 9.61982 85.0793 9.3521 84.7478 9.33936Z" fill="white"/>
<path d="M109.984 17.5238C109.984 17.8808 110.271 18.1676 110.628 18.1676H112.183V9.98313C112.183 9.63892 111.909 9.35845 111.565 9.3457H109.984V10.3082H107.804V11.4428C107.804 11.7998 108.091 12.0866 108.448 12.0866H109.977V17.5238H109.984Z" fill="white"/>
<path d="M158.077 19.0154H155.655V20.1564C155.655 20.5134 155.942 20.8002 156.299 20.8002H158.115V21.6161H160.257V10.2062C160.244 9.86201 159.964 9.58154 159.62 9.58154H158.071V19.0154H158.077Z" fill="white"/>
<path d="M97.235 22.4384C97.2222 22.0942 96.9481 21.8265 96.6103 21.8137H90.064C89.7134 21.8137 89.4329 21.5396 89.4202 21.1954V16.7781H96.2278V15.8475C96.2151 15.5032 95.941 15.2292 95.5968 15.2228H90.064C89.7134 15.2228 89.4329 14.9423 89.4202 14.6045V11.2389H96.2597V10.3337C96.2597 9.97678 95.9729 9.68994 95.6159 9.68994H87.1956V20.9213C87.1764 22.2536 88.2792 23.3563 89.6305 23.3563H97.235V22.4512V22.4384Z" fill="white"/>
<path d="M109.014 16.2682H105.101C104.744 16.2682 104.457 15.975 104.457 15.618V9.33301H102.258L102.277 15.8666C102.277 16.9311 103.144 17.8171 104.227 17.8171H109.646V16.8674C109.626 16.5359 109.359 16.2746 109.021 16.2618" fill="white"/>
<path d="M157.733 17.0585C157.721 16.7207 157.453 16.453 157.121 16.4338H147.197V17.3454C147.197 17.6959 147.49 17.9828 147.841 17.9828H151.366V21.4504H153.565V17.9828H157.733V17.0521V17.0585Z" fill="white"/>
<path d="M99.804 9.33936H98.204V11.8062H95.9985V12.7496C96.0177 13.0874 96.2981 13.3615 96.6423 13.3615H98.204V24.4527C98.2104 24.8033 98.4972 25.0837 98.8478 25.0837H100.422V9.97678C100.422 9.63257 100.148 9.3521 99.804 9.33936Z" fill="white"/>
<path d="M28.2021 12.7817L32.4474 17.7727C32.4729 17.8046 32.4984 17.8428 32.5239 17.8747L37.3364 23.4777C38.1842 24.4593 37.8209 25.1923 36.5205 25.0967L33.735 24.8991C32.4346 24.8035 30.6817 23.9239 29.8276 22.9422L25.015 17.3393C24.1609 16.3576 24.2692 14.8533 25.2509 13.9992L26.9145 12.5586C27.4436 12.259 27.9089 12.4566 28.1894 12.7881L28.2021 12.7817Z" fill="url(#paint4_linear_2370_6825)"/>
<path d="M38.6558 9.43502L32.766 14.528C31.8099 15.3503 31.6824 16.7845 32.4473 17.7661L28.2021 12.7751C27.9216 12.4437 27.4499 12.2461 26.9272 12.5456L31.1534 8.88683C32.135 8.03268 34.0026 7.41438 35.303 7.51L38.0885 7.7076C39.3889 7.80321 39.6438 8.57449 38.6558 9.42864V9.43502Z" fill="url(#paint5_linear_2370_6825)"/>
<path d="M27.3096 9.90674L24.3965 6.50928C24.9957 7.20407 24.9192 8.25582 24.2308 8.855L20.0875 12.4437C19.3928 13.0429 19.5776 13.5847 20.4891 13.6548L22.4524 13.795C23.3639 13.8588 24.677 13.4253 25.3718 12.8261L28.6163 9.98961C28.2912 10.2701 27.539 10.1745 27.3096 9.91312V9.90674Z" fill="url(#paint6_linear_2370_6825)"/>
<path d="M29.6806 6.88543L26.0983 2.74218C25.4991 2.04738 24.2625 1.42908 23.351 1.36534L21.3941 1.22511C20.4826 1.16137 20.2213 1.6713 20.8204 2.35972L24.4028 6.50297L27.2712 9.86857C27.6218 10.2701 28.2847 10.2638 28.6161 9.98331L29.5149 9.23752C30.2097 8.63834 30.2862 7.58022 29.687 6.8918L29.6806 6.88543Z" fill="url(#paint7_linear_2370_6825)"/>
<path d="M152.033 15.1544C154.647 15.1544 156.757 13.7202 156.757 11.9482C156.757 10.1761 154.64 8.74194 152.033 8.74194C149.426 8.74194 147.31 10.1761 147.31 11.9482C147.31 13.7202 149.426 15.1544 152.033 15.1544ZM152.033 10.0742C153.346 10.0742 154.411 10.9156 154.411 11.9482C154.411 12.9808 153.346 13.8222 152.033 13.8222C150.72 13.8222 149.656 12.9872 149.656 11.9482C149.656 10.9092 150.72 10.0742 152.033 10.0742Z" fill="white"/>
<path d="M122.075 15.0842C122.98 16.4419 124.962 17.8825 126.664 18.4753L127.461 16.8881C125.421 15.8937 123.203 14.0006 123.203 11.5656V10.788H126.722V9.23267H117.371V10.788H120.978V11.5848C120.978 14.2173 118.741 15.7344 116.682 16.8754L117.511 18.5008C118.919 17.9399 121.106 16.512 122.075 15.0906" fill="white"/>
<path d="M132.407 22.0895C132.407 26.169 145.474 26.169 145.474 22.0895C145.474 18.01 132.407 17.9208 132.407 22.0895ZM134.804 22.0704C134.804 20.0306 143.071 20.0306 143.071 22.0704C143.071 24.1102 134.804 24.1293 134.804 22.0704Z" fill="white"/>
<path d="M80.6164 13.4843C80.6164 10.941 78.6404 8.88208 76.2054 8.88208C73.7704 8.88208 71.7944 10.941 71.7944 13.4843C71.7944 16.0276 73.7704 18.0865 76.2054 18.0865C78.6404 18.0865 80.6164 16.0276 80.6164 13.4843ZM74.0509 13.4843C74.0509 11.674 75.0134 10.2015 76.199 10.2015C77.3846 10.2015 78.3471 11.674 78.3471 13.4843C78.3471 15.2946 77.3846 16.767 76.199 16.767C75.0134 16.767 74.0509 15.2946 74.0509 13.4843Z" fill="white"/>
<path d="M132.344 13.1849C132.344 14.7338 135.295 15.9895 138.941 15.9895C142.587 15.9895 145.538 14.7338 145.538 13.1849C145.538 12.3562 144.684 11.6104 143.339 11.0941H145.443V9.57703H140.133V8.55078H137.749V9.57703H132.439V11.0941H134.543C133.192 11.6104 132.344 12.3498 132.344 13.1849ZM138.941 11.9992C141.306 11.9992 143.225 12.5283 143.225 13.1849C143.225 13.8414 141.306 14.3705 138.941 14.3705C136.576 14.3705 134.658 13.8414 134.658 13.1849C134.658 12.5283 136.576 11.9992 138.941 11.9992Z" fill="white"/>
<path d="M46.3231 18.4052C48.7581 18.4052 50.7341 16.4292 50.7341 13.9942C50.7341 12.8978 50.3325 11.9035 49.6696 11.1322H50.6576V9.57687H47.5151V8.53149H45.112V9.57687H41.9886V11.1322H42.9639C42.3073 11.9035 41.9058 12.9042 41.9058 13.9942C41.9058 16.4292 43.8818 18.4052 46.3167 18.4052M46.3231 10.9537C47.5087 10.9537 48.4712 12.3178 48.4712 14.0006C48.4712 15.6834 47.5087 17.0475 46.3231 17.0475C45.1375 17.0475 44.175 15.6834 44.175 14.0006C44.175 12.3178 45.1375 10.9537 46.3231 10.9537Z" fill="white"/>
<path d="M110.359 18.5901H108.032C107.886 21.1334 104.297 22.7588 102.072 23.3389L102.869 24.9834C104.96 24.4608 107.599 23.358 109.097 21.8218C109.097 21.8218 109.141 21.7645 109.199 21.7645C109.256 21.7645 109.294 21.8218 109.294 21.8218C110.633 23.3708 113.54 24.4735 115.522 24.9834L116.319 23.3389C114.1 22.7588 110.505 21.1334 110.359 18.5901Z" fill="white"/>
<path d="M114.725 8.89478H113.138V17.0793C113.138 17.4363 113.425 17.7231 113.782 17.7231H115.337V9.5067C115.318 9.17524 115.057 8.90752 114.725 8.89478Z" fill="white"/>
<path d="M55.9035 9.87635H54.7944V8.90747H52.5889V17.7485C52.5889 18.0991 52.8757 18.386 53.2263 18.3923H54.7944V11.642H56.5409V10.5074C56.5281 10.1632 56.2477 9.88273 55.8971 9.88273" fill="white"/>
<path d="M45.8703 22.7714C45.5197 22.7714 45.2329 22.491 45.2265 22.1404V20.2472C45.2202 19.9094 44.9524 19.6417 44.621 19.6226H43.0083V22.2041C43.0083 23.5427 44.111 24.6391 45.4624 24.6391H54.9727V22.7778H45.864L45.8703 22.7714Z" fill="white"/>
<path d="M76.0974 22.7715C75.7405 22.7715 75.4536 22.4846 75.4536 22.1277V20.2409C75.4409 19.9094 75.1795 19.6417 74.8481 19.6162H73.229V22.1978C73.229 23.5364 74.3317 24.6327 75.6831 24.6327H85.1998V22.7715H76.0974Z" fill="white"/>
<path d="M121.253 22.7715C120.896 22.7715 120.609 22.4846 120.609 22.1277V20.26C120.609 19.9158 120.341 19.6417 120.003 19.6162H118.391V22.1978C118.391 23.5364 119.493 24.6327 120.845 24.6327H130.361V22.7715H121.253Z" fill="white"/>
<path d="M150.637 22.7715C150.28 22.7715 149.994 22.4846 149.994 22.1277V20.26C149.994 19.9158 149.726 19.6417 149.388 19.6162H147.775V22.1978C147.775 23.5364 148.878 24.6327 150.229 24.6327H160.097V22.7715H150.637Z" fill="white"/>
<path d="M146.035 17.3979C146.035 17.041 145.748 16.7542 145.391 16.7542H131.853V17.7549C131.859 18.1055 132.146 18.386 132.496 18.386H146.042V17.3979H146.035Z" fill="white"/>
<path d="M70.6981 16.9455V16.0212C70.6917 15.6706 70.4049 15.3902 70.0543 15.3902H69.1492C69.6718 14.0898 69.6527 12.7193 69.6527 11.3489V9.88281C69.6527 9.57047 69.4296 9.3155 69.1364 9.25176C69.0982 9.24539 69.0535 9.23901 69.0089 9.23901H57.9114V10.7943H67.4536V13.1082C67.4536 14.0133 67.4345 14.4276 66.9883 15.4029H57.0317V16.3144C57.0317 16.665 57.3122 16.9455 57.6564 16.9582H62.7239V19.0362H57.5034V19.9605C57.5162 20.2919 57.7839 20.5597 58.1154 20.5724H67.1094C67.4664 20.5724 67.7532 20.8656 67.7532 21.2162V24.6647H69.9714V19.68C69.9714 19.3231 69.6846 19.0362 69.3276 19.0362H64.9167V16.9582H70.6917L70.6981 16.9455Z" fill="white"/>
<path d="M129.742 8.8948H128.155V17.7614C128.155 18.1183 128.442 18.4052 128.799 18.4052H130.354V9.51948C130.354 9.17527 130.074 8.90118 129.736 8.88843" fill="white"/>
<path d="M84.4026 8.89478H82.8154V17.7613C82.8154 18.1183 83.1023 18.4051 83.4592 18.4051H85.0145V9.5067C85.0018 9.17524 84.7341 8.90752 84.4026 8.89478Z" fill="white"/>
<path d="M109.638 17.0793C109.638 17.4362 109.925 17.7231 110.282 17.7231H111.838V9.53855C111.838 9.19434 111.564 8.91387 111.219 8.90112H109.638V9.86363H107.458V10.9982C107.458 11.3552 107.745 11.642 108.102 11.642H109.632V17.0793H109.638Z" fill="white"/>
<path d="M157.732 18.5708H155.31V19.7118C155.31 20.0688 155.596 20.3556 155.953 20.3556H157.77V21.1715H159.912V9.76164C159.899 9.41743 159.619 9.13696 159.274 9.13696H157.725V18.5708H157.732Z" fill="white"/>
<path d="M96.8898 21.9938C96.877 21.6496 96.6029 21.3819 96.2651 21.3692H89.7187C89.3682 21.3692 89.0877 21.0951 89.075 20.7509V16.3335H95.8826V15.4029C95.8699 15.0587 95.5958 14.7846 95.2516 14.7782H89.7187C89.3682 14.7782 89.0877 14.4977 89.075 14.1599V10.7943H95.9145V9.88916C95.9145 9.5322 95.6277 9.24536 95.2707 9.24536H86.8503V20.4768C86.8312 21.809 87.934 22.9117 89.2853 22.9117H96.8898V22.0066V21.9938Z" fill="white"/>
<path d="M108.669 15.8236H104.756C104.399 15.8236 104.112 15.5304 104.112 15.1734V8.88843H101.913L101.932 15.422C101.932 16.4865 102.799 17.3725 103.882 17.3725H109.3V16.4228C109.281 16.0913 109.013 15.83 108.676 15.8172" fill="white"/>
<path d="M157.388 16.6139C157.375 16.2761 157.108 16.0084 156.776 15.9893H146.852V16.9008C146.852 17.2514 147.145 17.5382 147.495 17.5382H151.02V21.0058H153.219V17.5382H157.388V16.6076V16.6139Z" fill="white"/>
<path d="M99.4587 8.89478H97.8588V11.3616H95.6533V12.305C95.6724 12.6428 95.9529 12.9169 96.2971 12.9169H97.8588V24.0081C97.8652 24.3587 98.152 24.6391 98.5026 24.6391H100.077V9.5322C100.077 9.18799 99.8029 8.90752 99.4587 8.89478Z" fill="white"/>
<path d="M2.0932 17.4985V25.0775H0.467773V17.4985H2.0932ZM2.15057 21.2402L5.05722 17.4985H7.17984L4.01185 21.2402L7.03324 25.0775H4.90424L2.15057 21.2402Z" fill="white"/>
<path d="M7.97021 25.0775V17.4985H9.59564V25.0775H7.97021Z" fill="white"/>
<path d="M11.1128 25.0775V23.7326H14.5804C15.1413 23.7326 15.511 23.6752 15.6959 23.5605C15.9636 23.4011 16.0975 23.1589 16.0975 22.8338C16.0975 22.4641 15.9381 22.19 15.6258 22.0179C15.4473 21.9223 15.1605 21.8713 14.7716 21.8713H13.3629C12.5024 21.8713 11.8905 21.7119 11.508 21.406C11.2722 21.2084 11.0873 20.9661 10.9535 20.6666C10.8196 20.367 10.7559 20.0546 10.7559 19.7168C10.7559 19.1877 10.9088 18.7033 11.2212 18.2635C11.5271 17.8364 12.0116 17.5942 12.6809 17.5241C12.9104 17.5049 13.2418 17.4922 13.688 17.4922H17.4552V18.8308H14.0577C13.5541 18.8308 13.2163 18.8563 13.0506 18.9009C12.7128 18.9838 12.5406 19.2451 12.5406 19.6722C12.5406 20.0355 12.6809 20.2777 12.9677 20.4052C13.1589 20.4881 13.4777 20.5327 13.9175 20.5327H15.135C15.7596 20.5327 16.2186 20.5837 16.5245 20.6921C17.06 20.8705 17.4297 21.1956 17.6273 21.6482C17.793 22.0115 17.8695 22.4067 17.8695 22.8274C17.8695 23.2864 17.7611 23.7007 17.5508 24.0704C17.2576 24.5931 16.8114 24.899 16.2122 25.001C15.9254 25.0457 15.4919 25.0712 14.9119 25.0712H11.0937L11.1128 25.0775Z" fill="white"/>
<path d="M23.1346 17.4985H21.2734L18.1309 25.0775H20.024L22.204 19.3152L24.3776 25.0775H26.2771L23.1346 17.4985Z" fill="white"/>
<defs>
<linearGradient id="paint0_linear_2370_6825" x1="26.1207" y1="14.5505" x2="39.3558" y2="29.5777" gradientUnits="userSpaceOnUse">
<stop stop-color="#8DC63F"/>
<stop offset="0.24" stop-color="#8AC23D"/>
<stop offset="0.45" stop-color="#81B739"/>
<stop offset="0.65" stop-color="#73A533"/>
<stop offset="0.85" stop-color="#5F8C29"/>
<stop offset="0.93" stop-color="#558025"/>
</linearGradient>
<linearGradient id="paint1_linear_2370_6825" x1="38.0298" y1="7.37451" x2="29.557" y2="15.2972" gradientUnits="userSpaceOnUse">
<stop stop-color="#8DC63F"/>
<stop offset="0.45" stop-color="#8BC43E"/>
<stop offset="0.62" stop-color="#86BD3B"/>
<stop offset="0.73" stop-color="#7CB137"/>
<stop offset="0.83" stop-color="#6FA031"/>
<stop offset="0.91" stop-color="#5D8A29"/>
<stop offset="0.94" stop-color="#558025"/>
</linearGradient>
<linearGradient id="paint2_linear_2370_6825" x1="21.1334" y1="12.909" x2="26.5133" y2="8.25582" gradientUnits="userSpaceOnUse">
<stop stop-color="#005BAA"/>
<stop offset="0.27" stop-color="#0058A6"/>
<stop offset="0.5" stop-color="#00519B"/>
<stop offset="0.72" stop-color="#004589"/>
<stop offset="0.93" stop-color="#003570"/>
<stop offset="1" stop-color="#002F67"/>
</linearGradient>
<linearGradient id="paint3_linear_2370_6825" x1="29.356" y1="9.36501" x2="21.8599" y2="0.778912" gradientUnits="userSpaceOnUse">
<stop stop-color="#005BAA"/>
<stop offset="0.27" stop-color="#0058A6"/>
<stop offset="0.5" stop-color="#00519B"/>
<stop offset="0.72" stop-color="#004589"/>
<stop offset="0.93" stop-color="#003570"/>
<stop offset="1" stop-color="#002F67"/>
</linearGradient>
<linearGradient id="paint4_linear_2370_6825" x1="26.1202" y1="14.5507" x2="39.3554" y2="29.578" gradientUnits="userSpaceOnUse">
<stop stop-color="#8DC63F"/>
<stop offset="0.24" stop-color="#8AC23D"/>
<stop offset="0.45" stop-color="#81B739"/>
<stop offset="0.65" stop-color="#73A533"/>
<stop offset="0.85" stop-color="#5F8C29"/>
<stop offset="0.93" stop-color="#558025"/>
</linearGradient>
<linearGradient id="paint5_linear_2370_6825" x1="38.0298" y1="7.37451" x2="29.557" y2="15.2972" gradientUnits="userSpaceOnUse">
<stop stop-color="#8DC63F"/>
<stop offset="0.45" stop-color="#8BC43E"/>
<stop offset="0.62" stop-color="#86BD3B"/>
<stop offset="0.73" stop-color="#7CB137"/>
<stop offset="0.83" stop-color="#6FA031"/>
<stop offset="0.91" stop-color="#5D8A29"/>
<stop offset="0.94" stop-color="#558025"/>
</linearGradient>
<linearGradient id="paint6_linear_2370_6825" x1="21.1329" y1="12.909" x2="26.5128" y2="8.25582" gradientUnits="userSpaceOnUse">
<stop stop-color="#005BAA"/>
<stop offset="0.27" stop-color="#0058A6"/>
<stop offset="0.5" stop-color="#00519B"/>
<stop offset="0.72" stop-color="#004589"/>
<stop offset="0.93" stop-color="#003570"/>
<stop offset="1" stop-color="#002F67"/>
</linearGradient>
<linearGradient id="paint7_linear_2370_6825" x1="29.3555" y1="9.36501" x2="21.8594" y2="0.778912" gradientUnits="userSpaceOnUse">
<stop stop-color="#005BAA"/>
<stop offset="0.27" stop-color="#0058A6"/>
<stop offset="0.5" stop-color="#00519B"/>
<stop offset="0.72" stop-color="#004589"/>
<stop offset="0.93" stop-color="#003570"/>
<stop offset="1" stop-color="#002F67"/>
</linearGradient>
</defs>
</svg>
