<svg width="88" height="35" viewBox="0 0 88 35" fill="none" xmlns="http://www.w3.org/2000/svg">
<g clip-path="url(#clip0_2370_6797)">
<path d="M83.4679 17.1054C83.2964 17.6684 83.0526 18.1597 82.7366 18.5828C82.4389 18.9752 82.0862 19.2618 81.6779 19.4461C81.2702 19.6338 80.848 19.7259 80.4123 19.7259C79.984 19.7259 79.5676 19.6406 79.1666 19.4666C78.7641 19.296 78.4042 19.006 78.0885 18.6033C77.7777 18.2075 77.5346 17.7127 77.3558 17.1224C77.1784 16.5355 77.089 15.7951 77.089 14.9012C77.089 14.0345 77.1836 13.2906 77.3714 12.6662C77.5588 12.0418 77.804 11.5402 78.1086 11.1615C78.4516 10.752 78.807 10.4688 79.1756 10.3084C79.5452 10.148 79.9577 10.0695 80.4124 10.0695C80.8411 10.0695 81.2543 10.1549 81.653 10.3289C82.052 10.4995 82.4105 10.7861 82.7266 11.1819C83.0298 11.5709 83.2715 12.0725 83.4534 12.6798C83.6349 13.2906 83.7254 14.0276 83.7254 14.8909C83.7254 15.8053 83.6401 16.5424 83.4679 17.1054ZM85.6365 9.34281C84.3634 7.98818 82.6184 7.31257 80.4016 7.31257C78.1791 7.31257 76.4344 7.99158 75.1679 9.353C73.9017 10.711 73.269 12.5604 73.269 14.9012C73.269 17.2248 73.9017 19.0674 75.1679 20.4322C76.4344 21.8005 78.1791 22.4829 80.4016 22.4829C82.6184 22.4829 84.3634 21.8073 85.6365 20.4595C86.9093 19.1083 87.5465 17.2555 87.5465 14.9012C87.5465 12.5468 86.9093 10.694 85.6365 9.34281ZM19.7079 22.1724H15.2212L11.2012 16.2694L10.4798 17.2555V22.1724H6.77148V7.61966H10.4798V14.0993L15.2004 7.61966H19.4848L14.2244 14.3757L19.7079 22.1724Z" fill="white"/>
<path d="M83.4679 17.1054C83.2964 17.6684 83.0526 18.1597 82.7366 18.5828C82.4389 18.9752 82.0862 19.2618 81.6779 19.4461C81.2702 19.6338 80.848 19.7259 80.4123 19.7259C79.984 19.7259 79.5676 19.6406 79.1666 19.4666C78.7641 19.296 78.4042 19.006 78.0885 18.6033C77.7777 18.2075 77.5346 17.7127 77.3558 17.1224C77.1784 16.5355 77.089 15.7951 77.089 14.9012C77.089 14.0345 77.1836 13.2906 77.3714 12.6662C77.5588 12.0418 77.804 11.5402 78.1086 11.1615C78.4516 10.752 78.807 10.4688 79.1756 10.3084C79.5452 10.148 79.9577 10.0695 80.4124 10.0695C80.8411 10.0695 81.2543 10.1549 81.653 10.3289C82.052 10.4995 82.4105 10.7861 82.7266 11.1819C83.0298 11.5709 83.2715 12.0725 83.4534 12.6798C83.6349 13.2906 83.7254 14.0276 83.7254 14.8909C83.7254 15.8053 83.6401 16.5424 83.4679 17.1054ZM85.6365 9.34281C84.3634 7.98818 82.6184 7.31257 80.4016 7.31257C78.1791 7.31257 76.4344 7.99158 75.1679 9.353C73.9017 10.711 73.269 12.5604 73.269 14.9012C73.269 17.2248 73.9017 19.0674 75.1679 20.4322C76.4344 21.8005 78.1791 22.4829 80.4016 22.4829C82.6184 22.4829 84.3634 21.8073 85.6365 20.4595C86.9093 19.1083 87.5465 17.2555 87.5465 14.9012C87.5465 12.5468 86.9093 10.694 85.6365 9.34281ZM19.7079 22.1724H15.2212L11.2012 16.2694L10.4798 17.2555V22.1724H6.77148V7.61966H10.4798V14.0993L15.2004 7.61966H19.4848L14.2244 14.3757L19.7079 22.1724Z" fill="white"/>
<path d="M29.2694 17.1054C29.0974 17.6684 28.8537 18.1597 28.5379 18.5828C28.241 18.9752 27.8882 19.2618 27.4795 19.4461C27.0713 19.6338 26.6488 19.7259 26.214 19.7259C25.7847 19.7259 25.3699 19.6406 24.9674 19.4666C24.5647 19.296 24.2057 19.006 23.8889 18.6033C23.5796 18.2075 23.3359 17.7127 23.1581 17.1224C22.9798 16.5355 22.891 15.7951 22.891 14.9012C22.891 14.0345 22.9847 13.2906 23.1726 12.6662C23.3595 12.0418 23.6059 11.5402 23.9093 11.1615C24.2529 10.752 24.6081 10.4688 24.9768 10.3084C25.3464 10.148 25.759 10.0695 26.214 10.0695C26.6422 10.0695 27.0554 10.1549 27.455 10.3289C27.8532 10.4995 28.2109 10.7861 28.5278 11.1819C28.8312 11.5709 29.0732 12.0725 29.2553 12.6798C29.436 13.2906 29.5267 14.0276 29.5267 14.8909C29.5267 15.8053 29.4407 16.5424 29.2695 17.1054H29.2694ZM31.4376 9.34281C30.1642 7.98818 28.4196 7.31257 26.2038 7.31257C23.9803 7.31257 22.2357 7.99158 20.9698 9.353C19.7032 10.711 19.0693 12.5604 19.0693 14.9012C19.0693 17.2248 19.7032 19.0674 20.9698 20.4322C22.2357 21.8005 23.9803 22.4829 26.2038 22.4829C28.4196 22.4829 30.1642 21.8073 31.4376 20.4595C32.7109 19.1083 33.3477 17.2555 33.3477 14.9012C33.3477 12.5468 32.7109 10.694 31.4376 9.34281ZM56.4428 16.7096L54.6576 16.3001C54.0387 16.1739 53.4519 15.9828 52.9136 15.7986C51.7141 15.3856 50.8435 14.8226 50.3165 14.1334C50.3082 14.1232 50.2972 14.1095 50.2896 14.0993C49.7685 13.3964 49.5036 12.6969 49.5036 11.629C49.5036 10.6667 49.7723 9.84093 50.3165 9.12783V7.62651H46.0239L42.7689 14.8056L39.5019 7.61966H35.2356V22.1724H38.7209V12.5297L41.4021 18.7569H43.9265L46.6083 12.5297V22.1724H50.3165V18.89C50.9233 19.2926 51.5651 19.6235 52.2348 19.8692C53.2338 20.2411 54.2195 20.4288 55.1624 20.4288C55.4051 20.4288 55.7246 20.4015 56.1091 20.3503C56.5123 20.2991 56.8317 20.2172 57.0873 20.1012C57.3897 19.9716 57.6519 19.7873 57.8642 19.5519C58.0896 19.3028 58.1837 18.9718 58.2044 18.5726C58.2355 17.9925 58.0177 17.1463 56.4428 16.7096Z" fill="white"/>
<path d="M64.8054 11.1786C65.2085 10.7692 65.6328 10.4826 66.0785 10.3188C66.5245 10.1516 67.0148 10.0697 67.5504 10.0697C67.9978 10.0697 68.4293 10.1414 68.8428 10.2847C69.255 10.428 69.6336 10.602 69.9776 10.8067C70.321 11.0115 70.6276 11.2196 70.8984 11.4346C71.1691 11.6495 71.3938 11.8338 71.5716 11.9873H71.9485V8.52403C71.7047 8.39771 71.3828 8.25101 70.9876 8.08382C70.591 7.91324 70.2259 7.78013 69.8887 7.68462C69.4596 7.56521 69.0095 7.47649 68.5413 7.40821C68.0725 7.34684 67.5434 7.3127 66.956 7.3127C64.7449 7.3127 62.9863 7.9985 61.6828 9.37363C61.5714 9.49288 61.4642 9.61578 61.3612 9.74215C61.1036 10.0548 60.8764 10.3907 60.6825 10.7453C60.1915 10.4178 59.6393 10.1311 59.0311 9.88885C58.1422 9.53397 57.2159 9.35319 56.2792 9.35319C55.9162 9.35319 55.5818 9.38042 55.2858 9.4316C54.9885 9.48284 54.6718 9.58515 54.3439 9.7319C54.0663 9.8547 53.8229 10.0424 53.6189 10.2847C53.407 10.5372 53.2994 10.8272 53.2994 11.1445C53.2994 11.6051 53.4699 11.9805 53.8074 12.2535C54.1268 12.5128 54.7101 12.738 55.5908 12.9393L57.172 13.2942C57.6678 13.4068 58.2075 13.5637 58.7756 13.7616C59.1099 13.8806 59.4355 14.0219 59.7503 14.1847C60.3675 14.5055 60.8592 14.8877 61.2143 15.3244C61.7367 15.9659 62.0005 16.8325 62.0005 17.8972C62.0005 18.7672 61.8103 19.5315 61.4241 20.2037C61.5059 20.2972 61.5904 20.3882 61.6776 20.4767C62.9787 21.8006 64.7351 22.4592 66.947 22.4592C67.6527 22.4592 68.208 22.425 68.6101 22.3534C69.0126 22.2817 69.4462 22.176 69.9078 22.0394C70.2835 21.93 70.651 21.7943 71.0072 21.6334C71.3635 21.473 71.678 21.3331 71.9485 21.2069V17.7845H71.6113C71.3963 17.9709 71.1785 18.154 70.9579 18.3339C70.7065 18.542 70.4168 18.7434 70.0862 18.9412C69.7822 19.1357 69.4089 19.3097 68.9666 19.4668C68.5237 19.627 68.0579 19.7056 67.5694 19.7056C67.1006 19.7056 66.6293 19.6236 66.1576 19.4599C65.6857 19.2995 65.2573 19.0368 64.8752 18.6717C64.479 18.293 64.1577 17.7982 63.914 17.1875C63.6692 16.5732 63.5478 15.8123 63.5478 14.9115C63.5478 14.0517 63.6643 13.3078 63.8991 12.68C64.1335 12.0487 64.4354 11.5506 64.8054 11.1786ZM21.3674 28.8808C21.557 28.5328 21.7506 28.0755 21.9485 27.5091C22.1469 26.9461 22.2948 26.407 22.3885 25.8951C22.3885 25.8951 21.1004 25.9805 20.6066 26.0009C20.1122 26.018 19.3113 26.0283 18.2016 26.0283C18.0064 26.0283 17.7765 26.0145 17.5118 25.9873C17.247 25.96 17.061 25.9395 16.9545 25.9259L16.7945 26.1682L18.051 26.6049C18.1773 26.5196 18.2883 26.465 18.3857 26.4445C18.4847 26.4207 18.5764 26.407 18.6648 26.4002C18.7973 26.3865 19.1947 26.3729 19.8558 26.3524C20.5178 26.3354 21.0592 26.3182 21.4806 26.3081C21.4432 26.7107 21.3803 27.1611 21.2925 27.6592C21.2036 28.1574 21.1069 28.5703 20.999 28.9012C20.8036 28.9047 20.549 28.9115 20.3561 28.9149C20.1634 28.9183 19.9779 28.9183 19.8021 28.9183C19.2222 28.9183 18.6916 28.9252 18.2098 28.932C17.7925 28.941 17.3751 28.9456 16.9577 28.9456C16.7499 28.9456 16.4651 28.9252 16.102 28.8877C15.7409 28.8467 15.4987 28.8194 15.3796 28.8057L15.1819 29.0855L16.7318 29.5701C16.8445 29.4984 16.96 29.4438 17.081 29.4131C17.1998 29.3824 17.3064 29.3653 17.402 29.3551C17.5036 29.3448 17.6988 29.3278 17.9877 29.3039C18.2776 29.2766 18.6533 29.2596 19.1126 29.2562V31.0748H18.0372C17.842 31.0748 17.608 31.0577 17.3365 31.0271C17.066 30.9963 16.8771 30.9793 16.7702 30.9725L16.6182 31.1738L17.8856 31.6515C17.9985 31.5696 18.1068 31.5184 18.2124 31.4911C18.3153 31.4673 18.412 31.4536 18.5008 31.4467C18.6321 31.4297 19.1326 31.416 19.7279 31.4092C20.3242 31.4024 21.0045 31.399 21.4339 31.399L21.455 33.2859L21.4976 34.1218H21.9039C21.9351 34.0161 22.034 33.8591 22.081 33.6475C22.1287 33.436 22.1528 33.2449 22.1528 33.0777L22.1611 31.3069L22.1591 30.9144C22.1591 30.9144 20.2462 31.0509 19.85 31.0646V29.2459C20.487 29.2459 21.1531 29.2494 21.849 29.2596C22.5443 29.2698 23.2242 29.2903 23.716 29.3209V28.7136C23.3337 28.7548 22.9506 28.7878 22.5668 28.8125C22.1481 28.8399 21.79 28.8637 21.3674 28.8808ZM53.539 28.949C53.7589 28.5805 53.9436 28.2154 54.0908 27.8435C54.2392 27.475 54.3388 27.127 54.3903 26.8062L52.9516 26.3933L52.7538 26.581C53.0816 26.738 53.2721 26.8813 53.3267 27.0144C53.3786 27.1474 53.3869 27.2976 53.3503 27.4579C53.1919 28.0994 52.9008 28.7818 52.4748 29.5086C52.0502 30.2354 51.5039 30.8223 50.8362 31.2727L51.0713 31.4126C51.5129 31.1839 51.9295 30.8735 52.3202 30.4913C52.7079 30.1052 53.0562 29.6823 53.3599 29.2288C53.5805 29.4404 53.8848 29.7577 54.271 30.1808C54.6583 30.6039 54.9878 30.9827 55.2585 31.3171L55.8162 30.7677C55.4701 30.5322 55.0587 30.2183 54.5836 29.8259C54.1071 29.4336 53.7589 29.1435 53.539 28.949ZM59.5024 28.7442C59.1946 28.7817 58.8857 28.809 58.5761 28.8262C58.2677 28.8467 57.9928 28.8603 57.7539 28.8637L57.7632 26.1783C57.7632 26.0623 57.7712 25.9293 57.7871 25.7825C57.8036 25.6358 57.8137 25.5198 57.8203 25.4346L56.4683 25.1343L56.2605 25.3663C56.5312 25.4618 56.7301 25.5676 56.8556 25.6904C56.9825 25.8133 57.0444 25.977 57.0444 26.1784L57.0734 33.1834L57.1481 34.1082H57.5457C57.5765 33.9956 57.6183 33.8113 57.6685 33.5622C57.7197 33.3097 57.7442 33.0948 57.7442 32.9139L57.7538 29.3209C57.9928 29.3277 58.2611 29.3346 58.5567 29.3414C58.8538 29.3482 59.2341 29.3653 59.5041 29.3858L59.5024 28.7442ZM13.1949 28.4167L13.2039 26.1783C13.2039 26.0623 13.2141 25.9293 13.2327 25.7825C13.2508 25.6358 13.2636 25.5198 13.2704 25.4346L11.9092 25.1343L11.7013 25.3663C11.9789 25.4686 12.1782 25.5778 12.2972 25.6939C12.4169 25.8133 12.4757 25.9771 12.4757 26.1783L12.5142 31.0679L12.5991 31.9346H12.9962C13.0273 31.8289 13.0658 31.6582 13.1086 31.4194C13.1536 31.1839 13.1759 30.9758 13.1759 30.795L13.1848 28.8637C13.4255 28.8706 13.6961 28.874 13.9977 28.8842C14.2996 28.8877 14.6724 28.9115 14.9438 28.9285V28.2973C14.6345 28.3348 14.3247 28.3621 14.0119 28.3826C13.7002 28.3997 13.4287 28.4133 13.1949 28.4167ZM7.62315 27.7377C7.71468 27.7139 7.79251 27.6968 7.8553 27.6899C7.96175 27.6797 8.10177 27.6592 8.27535 27.6353C8.44876 27.6081 8.70271 27.5978 9.03629 27.5978C9.49637 27.5978 9.89692 27.5978 10.2413 27.6013C10.5844 27.6047 11.0057 27.6218 11.3903 27.6558V27.1236C10.9865 27.1645 10.5959 27.1986 10.217 27.2191C9.83992 27.243 9.45296 27.2566 9.05465 27.2635C8.75318 27.2703 8.49229 27.2737 8.2701 27.2839C8.05063 27.2942 7.79523 27.2976 7.5059 27.2976C7.31637 27.2976 7.10704 27.2839 6.8773 27.2566C6.64702 27.2293 6.48364 27.2089 6.39042 27.1953L6.24805 27.3999L7.33503 27.8571C7.43471 27.8025 7.53198 27.7615 7.62315 27.7376M10.3495 33.3814C10.1792 33.3882 10.0512 33.3541 9.96309 33.2825C9.87331 33.2108 9.82906 33.1084 9.82906 32.9787V32.3543C9.82906 32.2417 9.8357 32.1189 9.84832 31.9858C9.86112 31.8528 9.87192 31.7469 9.8779 31.6719L8.48818 31.5149L8.35505 31.7367C8.70796 31.8357 8.92152 31.9312 8.99457 32.0165C9.06654 32.1053 9.10265 32.2895 9.10265 32.5659V33.3609C9.10265 33.4837 9.14504 33.5861 9.23011 33.6646C9.31524 33.7431 9.44958 33.7806 9.63277 33.7806C9.68258 33.7738 10.1014 33.7568 10.8892 33.7363C11.6763 33.709 12.5947 33.7226 13.634 33.7703V33.2381C12.9911 33.3097 12.3393 33.3507 11.574 33.3609C10.8079 33.3711 10.4007 33.3814 10.3495 33.3814ZM8.78156 26.5708C8.86289 26.5571 8.9447 26.5503 9.02778 26.5435C9.30371 26.5298 9.5131 26.5264 9.65505 26.5264C9.79724 26.5264 10.0431 26.5332 10.2373 26.5469V26.0589C10.0034 26.0692 9.74797 26.0965 9.47011 26.0896C9.19376 26.0828 8.95177 26.0692 8.74389 26.0419C8.51089 26.0112 8.30548 25.9805 8.12863 25.9463C7.95185 25.9122 7.83037 25.885 7.76009 25.8679L7.55275 26.0658L8.50751 26.6356C8.59726 26.6078 8.68885 26.5861 8.78162 26.5708M10.3688 30.5152C10.5767 30.3616 10.726 30.191 10.8163 30C10.8205 29.9931 10.8245 29.9863 10.8282 29.9761C10.8935 29.8362 10.927 29.6792 10.927 29.5154C10.927 29.5052 10.9244 29.4949 10.9244 29.4847C10.9244 29.471 10.927 29.4609 10.927 29.4506C10.927 29.0548 10.7411 28.7238 10.3688 28.4508C9.99751 28.1813 9.55071 28.0448 9.02784 28.0448C8.50563 28.0448 8.05636 28.1812 7.6851 28.4509C7.47661 28.601 7.32923 28.775 7.2377 28.9661C7.23269 28.9729 7.23009 28.9831 7.22605 28.99C7.16162 29.1299 7.12715 29.2868 7.12715 29.4505C7.12715 29.4609 7.12944 29.4711 7.12944 29.4847C7.12944 29.4949 7.12715 29.5052 7.12715 29.5154C7.12715 29.9112 7.31384 30.2456 7.6851 30.5152C8.05642 30.7847 8.50431 30.9212 9.02778 30.9212C9.55077 30.9212 9.99685 30.7848 10.3688 30.5152ZM7.82705 29.4779C7.82705 29.1981 7.93917 28.9558 8.16691 28.7408C8.39418 28.5327 8.68097 28.4236 9.02778 28.4236C9.3857 28.4236 9.67564 28.5327 9.89626 28.7409C10.1174 28.9558 10.2271 29.1981 10.2271 29.478C10.2271 29.7645 10.1174 30.0136 9.89626 30.2251C9.6757 30.4367 9.3857 30.5425 9.02778 30.5425C8.68097 30.5425 8.39418 30.4367 8.16691 30.2252C7.93917 30.0136 7.82705 29.7645 7.82705 29.4779ZM45.0236 26.4002C45.1242 26.3797 45.2183 26.366 45.3068 26.3592C45.4327 26.349 45.852 26.3319 46.5681 26.3115C47.2832 26.2944 47.8516 26.2773 48.2737 26.2671C48.2485 26.7073 48.1984 27.1201 48.123 27.5022C48.0469 27.8845 47.9564 28.2495 47.8481 28.5975L48.2077 28.6726C48.4028 28.3076 48.5853 27.8879 48.7557 27.4204C48.9259 26.9495 49.0614 26.4275 49.1624 25.8542C49.1624 25.8542 46.1604 25.9873 44.8241 25.9873C44.6284 25.9873 44.4022 25.9736 44.1443 25.9463C43.8857 25.919 43.7028 25.8951 43.5956 25.885L43.4251 26.117L44.6823 26.5639C44.8085 26.4786 44.9212 26.4241 45.0236 26.4002Z" fill="white"/>
<path d="M46.5001 29.4539H46.2228V28.2903C46.2228 28.1777 46.2321 28.0515 46.2512 27.9014C46.2695 27.7581 46.2853 27.6421 46.2981 27.5635L45.052 27.4134L44.9089 27.6079C45.1928 27.7103 45.3653 27.8059 45.4289 27.898C45.4919 27.9901 45.5237 28.1641 45.5237 28.4132V29.4641C45.1703 29.471 44.7778 29.4778 44.4736 29.4778C44.1676 29.4846 43.8955 29.4846 43.6558 29.4846C43.448 29.4846 43.1628 29.4675 42.8008 29.4334C42.4377 29.3993 42.1978 29.3754 42.0774 29.3618L41.879 29.6245L43.4297 30.1192C43.5417 30.051 43.66 29.9998 43.7779 29.9691C43.8979 29.9384 44.0051 29.9179 44.0991 29.9145C44.2253 29.9009 44.4888 29.877 44.8881 29.8463C45.2889 29.8156 45.8107 29.7985 46.4531 29.7985C47.0959 29.7985 47.7766 29.8054 48.4948 29.8155C49.2122 29.8258 49.9093 29.8394 50.4131 29.8702V29.2696C49.8522 29.3311 49.2064 29.3788 48.4758 29.4095C47.7441 29.4402 47.0865 29.4539 46.5001 29.4539ZM47.9536 30.9382C47.5226 30.614 47.0032 30.4502 46.3964 30.4502C45.7896 30.4502 45.2695 30.614 44.8383 30.9382C44.5977 31.1224 44.4258 31.3271 44.3201 31.5557C44.3156 31.566 44.3111 31.5728 44.3069 31.583C44.2315 31.7537 44.1917 31.9379 44.1917 32.1358C44.1917 32.1495 44.1945 32.1631 44.1945 32.1734C44.1945 32.1904 44.1917 32.2007 44.1917 32.2143C44.1917 32.692 44.4075 33.0912 44.8384 33.4154C45.2695 33.7395 45.7895 33.9033 46.3964 33.9033C47.0022 33.9033 47.5218 33.7395 47.9536 33.4153C48.195 33.2311 48.3658 33.0264 48.472 32.7977C48.4782 32.7876 48.4813 32.7807 48.4865 32.7705C48.5612 32.5999 48.601 32.4156 48.601 32.2143C48.601 32.2006 48.5988 32.1904 48.5988 32.1768C48.5988 32.1631 48.601 32.1495 48.601 32.1358C48.601 31.6616 48.3848 31.2623 47.9537 30.9382L47.9536 30.9382ZM47.4589 33.1321C47.1899 33.4017 46.8355 33.5416 46.3964 33.5416C45.9707 33.5416 45.6219 33.4017 45.3446 33.1322C45.0669 32.8592 44.9282 32.5384 44.9282 32.1699C44.9282 31.8116 45.0669 31.4944 45.3445 31.2214C45.6219 30.9484 45.9707 30.8119 46.3963 30.8119C46.8355 30.8119 47.1899 30.9484 47.4589 31.2214C47.7282 31.4944 47.8631 31.8116 47.8631 32.1699C47.8631 32.5384 47.7283 32.8591 47.4589 33.1321ZM28.721 31.856V30.8562C28.721 30.7403 28.7302 30.6072 28.7484 30.4639C28.7676 30.3172 28.7827 30.2011 28.7946 30.1226L27.5583 29.9657L27.4065 30.1772C27.6831 30.2728 27.8484 30.3684 27.9022 30.4707C27.9563 30.5731 27.9831 30.7437 27.9831 30.9791V31.856C27.5423 31.8628 27.0706 31.8697 26.6915 31.8765C26.3128 31.8799 25.9831 31.8833 25.7003 31.8833C25.4908 31.8833 25.2065 31.8696 24.8437 31.8321C24.4827 31.798 24.2411 31.7776 24.1226 31.7639L23.9229 32.0335L25.4724 32.5282C25.581 32.4626 25.6987 32.4132 25.8219 32.3815C25.9416 32.3542 26.0489 32.3337 26.1437 32.3235C26.2693 32.3098 26.5329 32.2859 26.9323 32.2518C27.3329 32.2177 27.8543 32.2006 28.4972 32.2006C29.139 32.2006 29.8191 32.2075 30.5387 32.2143C31.256 32.2246 31.9524 32.2484 32.4569 32.2791V31.6717C31.9145 31.7332 31.2921 31.7776 30.586 31.8083C29.8798 31.8424 29.3008 31.856 28.721 31.856Z" fill="white"/>
<path d="M24.8838 30.0105L25.12 30.1777C26.1505 29.99 27.3703 29.3997 28.4201 28.6626C28.9089 28.881 29.5189 29.1574 29.9909 29.3792C30.5239 29.6317 30.9758 29.8706 31.3475 30.0923L31.7448 29.4884C31.2377 29.3323 30.7334 29.1673 30.2321 28.9936C29.7623 28.8333 29.1757 28.6115 28.7247 28.4409C29.6316 27.7551 30.3755 26.9737 30.6958 26.2708C30.6958 26.2708 29.3213 26.322 28.9147 26.3527C28.5086 26.3868 27.8507 26.4004 26.9438 26.4004C26.7486 26.4004 26.5172 26.3867 26.2491 26.3595C25.9809 26.3322 25.7947 26.3117 25.6866 26.3083L25.5175 26.5301L26.7748 26.9805C26.8866 26.9123 26.993 26.8645 27.0903 26.844C27.1873 26.8235 27.2782 26.8065 27.3604 26.7928C27.512 26.7724 27.7875 26.7587 28.1915 26.7451C28.5949 26.7348 29.1034 26.7212 29.489 26.7109C28.7195 27.9598 27.0536 29.3246 24.8838 30.0105ZM34.8031 27.5708C34.8837 27.5401 34.9471 27.5162 34.9976 27.5026C35.0855 27.4855 35.1937 27.465 35.3186 27.4411C35.4461 27.4206 35.5875 27.407 35.7446 27.407C36.0467 27.407 36.2999 27.4104 36.5002 27.4138C36.7029 27.4173 37.0102 27.4343 37.3377 27.4582V26.9702C36.8673 27.0283 35.0108 27.0931 34.7338 27.0931C34.5643 27.0931 34.3548 27.0761 34.1093 27.0419C33.8645 27.0043 33.6868 26.9839 33.5812 26.9702L33.4295 27.2125L34.5824 27.6902C34.6507 27.6459 34.725 27.6083 34.8031 27.5708ZM34.0814 28.1747C34.3882 28.806 34.4159 29.4099 34.4159 30.2152C34.4159 30.6178 35.0871 30.4848 35.0871 29.9934C35.0871 29.2087 34.737 28.5092 34.3269 28.0894L34.0814 28.1747ZM39.5243 25.3563C39.7839 25.4552 39.96 25.5644 40.0559 25.6839C40.1495 25.7999 40.1966 25.9671 40.1966 26.1786L40.2148 33.2008L40.309 34.1255H40.6786C40.7094 34.0197 40.7499 33.8389 40.796 33.5864C40.8439 33.3373 40.8663 33.1189 40.8663 32.9381L40.886 26.1957C40.886 26.0797 40.894 25.9432 40.9096 25.7896C40.9248 25.6395 40.9369 25.5201 40.9424 25.4416L39.6957 25.1516L39.5243 25.3563ZM37.9389 25.776C38.1961 25.8749 38.3739 25.9841 38.4677 26.1036C38.5621 26.223 38.6101 26.3868 38.6101 26.5983L38.614 28.1304C38.26 28.1611 37.7979 28.144 37.2837 28.0416L37.1581 28.2498L37.8901 28.6286C37.9656 28.5739 38.4074 28.533 38.6152 28.516L38.6184 29.7034C38.2551 29.7443 37.7208 29.7238 37.1669 29.6112L37.0479 29.8091L37.8105 30.2084C37.8994 30.1435 38.4937 30.0957 38.6196 30.0889L38.6275 32.8254L38.7222 33.7502H39.0909C39.1228 33.6443 39.1631 33.467 39.2102 33.2145C39.2575 32.9619 39.2814 32.747 39.2814 32.5662L39.3 26.6154C39.3 26.496 39.3079 26.3629 39.3225 26.2094C39.3385 26.0592 39.3506 25.9432 39.3562 25.8613L38.1099 25.5713L37.9389 25.776Z" fill="white"/>
<path d="M36.3168 30.7303L36.8024 28.816C36.8348 28.7047 36.8667 28.5932 36.8981 28.4816C36.9288 28.369 36.9563 28.2838 36.9827 28.2223L35.8758 27.8743L35.7074 28.0688C35.9541 28.1882 36.0938 28.3008 36.1323 28.4066C36.1709 28.5124 36.1709 28.6795 36.1323 28.9116L35.8172 30.7849C35.0919 30.8463 34.377 30.836 33.4295 30.7098L33.2988 30.9793L34.4486 31.4707C34.6222 31.3922 35.1081 31.2933 35.1973 31.2899C35.6441 31.2318 36.0577 31.1739 36.4385 31.1124C36.821 31.0476 37.1843 30.9691 37.5305 30.8702L37.4558 30.5631C37.0429 30.6279 36.6726 30.6859 36.3168 30.7303Z" fill="white"/>
<path d="M64.8054 11.1786C65.2085 10.7692 65.6328 10.4826 66.0785 10.3188C66.5245 10.1516 67.0148 10.0697 67.5504 10.0697C67.9978 10.0697 68.4293 10.1414 68.8428 10.2847C69.255 10.428 69.6336 10.602 69.9776 10.8067C70.321 11.0115 70.6276 11.2196 70.8984 11.4346C71.1691 11.6495 71.3938 11.8338 71.5716 11.9873H71.9485V8.52403C71.7047 8.39771 71.3828 8.25101 70.9876 8.08382C70.591 7.91324 70.2259 7.78013 69.8887 7.68462C69.4596 7.56521 69.0095 7.47649 68.5413 7.40821C68.0725 7.34684 67.5434 7.3127 66.956 7.3127C64.7449 7.3127 62.9863 7.9985 61.6828 9.37363C61.5714 9.49288 61.4642 9.61578 61.3612 9.74215C61.1036 10.0548 60.8764 10.3907 60.6825 10.7453C60.1915 10.4178 59.6393 10.1311 59.0311 9.88885C58.1422 9.53397 57.2159 9.35319 56.2792 9.35319C55.9162 9.35319 55.5818 9.38042 55.2858 9.4316C54.9885 9.48284 54.6718 9.58515 54.3439 9.7319C54.0663 9.8547 53.8229 10.0424 53.6189 10.2847C53.407 10.5372 53.2994 10.8272 53.2994 11.1445C53.2994 11.6051 53.4699 11.9805 53.8074 12.2535C54.1268 12.5128 54.7101 12.738 55.5908 12.9393L57.172 13.2942C57.6678 13.4068 58.2075 13.5637 58.7756 13.7616C59.1099 13.8806 59.4355 14.0219 59.7503 14.1847C60.3675 14.5055 60.8592 14.8877 61.2143 15.3244C61.7367 15.9659 62.0005 16.8325 62.0005 17.8972C62.0005 18.7672 61.8103 19.5315 61.4241 20.2037C61.5059 20.2972 61.5904 20.3882 61.6776 20.4767C62.9787 21.8006 64.7351 22.4592 66.947 22.4592C67.6527 22.4592 68.208 22.425 68.6101 22.3534C69.0126 22.2817 69.4462 22.176 69.9078 22.0394C70.2835 21.93 70.651 21.7943 71.0072 21.6334C71.3635 21.473 71.678 21.3331 71.9485 21.2069V17.7845H71.6113C71.3963 17.9709 71.1785 18.154 70.9579 18.3339C70.7065 18.542 70.4168 18.7434 70.0862 18.9412C69.7822 19.1357 69.4089 19.3097 68.9666 19.4668C68.5237 19.627 68.0579 19.7056 67.5694 19.7056C67.1006 19.7056 66.6293 19.6236 66.1576 19.4599C65.6857 19.2995 65.2573 19.0368 64.8752 18.6717C64.479 18.293 64.1577 17.7982 63.914 17.1875C63.6692 16.5732 63.5478 15.8123 63.5478 14.9115C63.5478 14.0517 63.6643 13.3078 63.8991 12.68C64.1335 12.0487 64.4354 11.5506 64.8054 11.1786ZM21.3674 28.8808C21.557 28.5328 21.7506 28.0755 21.9485 27.5091C22.1469 26.9461 22.2948 26.407 22.3885 25.8951C22.3885 25.8951 21.1004 25.9805 20.6066 26.0009C20.1122 26.018 19.3113 26.0283 18.2016 26.0283C18.0064 26.0283 17.7765 26.0145 17.5118 25.9873C17.247 25.96 17.061 25.9395 16.9545 25.9259L16.7945 26.1682L18.051 26.6049C18.1773 26.5196 18.2883 26.465 18.3857 26.4445C18.4847 26.4207 18.5764 26.407 18.6648 26.4002C18.7973 26.3865 19.1947 26.3729 19.8558 26.3524C20.5178 26.3354 21.0592 26.3182 21.4806 26.3081C21.4432 26.7107 21.3803 27.1611 21.2925 27.6592C21.2036 28.1574 21.1069 28.5703 20.999 28.9012C20.8036 28.9047 20.549 28.9115 20.3561 28.9149C20.1634 28.9183 19.9779 28.9183 19.8021 28.9183C19.2222 28.9183 18.6916 28.9252 18.2098 28.932C17.7925 28.941 17.3751 28.9456 16.9577 28.9456C16.7499 28.9456 16.4651 28.9252 16.102 28.8877C15.7409 28.8467 15.4987 28.8194 15.3796 28.8057L15.1819 29.0855L16.7318 29.5701C16.8445 29.4984 16.96 29.4438 17.081 29.4131C17.1998 29.3824 17.3064 29.3653 17.402 29.3551C17.5036 29.3448 17.6988 29.3278 17.9877 29.3039C18.2776 29.2766 18.6533 29.2596 19.1126 29.2562V31.0748H18.0372C17.842 31.0748 17.608 31.0577 17.3365 31.0271C17.066 30.9963 16.8771 30.9793 16.7702 30.9725L16.6182 31.1738L17.8856 31.6515C17.9985 31.5696 18.1068 31.5184 18.2124 31.4911C18.3153 31.4673 18.412 31.4536 18.5008 31.4467C18.6321 31.4297 19.1326 31.416 19.7279 31.4092C20.3242 31.4024 21.0045 31.399 21.4339 31.399L21.455 33.2859L21.4976 34.1218H21.9039C21.9351 34.0161 22.034 33.8591 22.081 33.6475C22.1287 33.436 22.1528 33.2449 22.1528 33.0777L22.1611 31.3069L22.1591 30.9144C22.1591 30.9144 20.2462 31.0509 19.85 31.0646V29.2459C20.487 29.2459 21.1531 29.2494 21.849 29.2596C22.5443 29.2698 23.2242 29.2903 23.716 29.3209V28.7136C23.3337 28.7548 22.9506 28.7878 22.5668 28.8125C22.1481 28.8399 21.79 28.8637 21.3674 28.8808ZM53.539 28.949C53.7589 28.5805 53.9436 28.2154 54.0908 27.8435C54.2392 27.475 54.3388 27.127 54.3903 26.8062L52.9516 26.3933L52.7538 26.581C53.0816 26.738 53.2721 26.8813 53.3267 27.0144C53.3786 27.1474 53.3869 27.2976 53.3503 27.4579C53.1919 28.0994 52.9008 28.7818 52.4748 29.5086C52.0502 30.2354 51.5039 30.8223 50.8362 31.2727L51.0713 31.4126C51.5129 31.1839 51.9295 30.8735 52.3202 30.4913C52.7079 30.1052 53.0562 29.6823 53.3599 29.2288C53.5805 29.4404 53.8848 29.7577 54.271 30.1808C54.6583 30.6039 54.9878 30.9827 55.2585 31.3171L55.8162 30.7677C55.4701 30.5322 55.0587 30.2183 54.5836 29.8259C54.1071 29.4336 53.7589 29.1435 53.539 28.949ZM59.5024 28.7442C59.1946 28.7817 58.8857 28.809 58.5761 28.8262C58.2677 28.8467 57.9928 28.8603 57.7539 28.8637L57.7632 26.1783C57.7632 26.0623 57.7712 25.9293 57.7871 25.7825C57.8036 25.6358 57.8137 25.5198 57.8203 25.4346L56.4683 25.1343L56.2605 25.3663C56.5312 25.4618 56.7301 25.5676 56.8556 25.6904C56.9825 25.8133 57.0444 25.977 57.0444 26.1784L57.0734 33.1834L57.1481 34.1082H57.5457C57.5765 33.9956 57.6183 33.8113 57.6685 33.5622C57.7197 33.3097 57.7442 33.0948 57.7442 32.9139L57.7538 29.3209C57.9928 29.3277 58.2611 29.3346 58.5567 29.3414C58.8538 29.3482 59.2341 29.3653 59.5041 29.3858L59.5024 28.7442ZM13.1949 28.4167L13.2039 26.1783C13.2039 26.0623 13.2141 25.9293 13.2327 25.7825C13.2508 25.6358 13.2636 25.5198 13.2704 25.4346L11.9092 25.1343L11.7013 25.3663C11.9789 25.4686 12.1782 25.5778 12.2972 25.6939C12.4169 25.8133 12.4757 25.9771 12.4757 26.1783L12.5142 31.0679L12.5991 31.9346H12.9962C13.0273 31.8289 13.0658 31.6582 13.1086 31.4194C13.1536 31.1839 13.1759 30.9758 13.1759 30.795L13.1848 28.8637C13.4255 28.8706 13.6961 28.874 13.9977 28.8842C14.2996 28.8877 14.6724 28.9115 14.9438 28.9285V28.2973C14.6345 28.3348 14.3247 28.3621 14.0119 28.3826C13.7002 28.3997 13.4287 28.4133 13.1949 28.4167ZM7.62315 27.7377C7.71468 27.7139 7.79251 27.6968 7.8553 27.6899C7.96175 27.6797 8.10177 27.6592 8.27535 27.6353C8.44876 27.6081 8.70271 27.5978 9.03629 27.5978C9.49637 27.5978 9.89692 27.5978 10.2413 27.6013C10.5844 27.6047 11.0057 27.6218 11.3903 27.6558V27.1236C10.9865 27.1645 10.5959 27.1986 10.217 27.2191C9.83992 27.243 9.45296 27.2566 9.05465 27.2635C8.75318 27.2703 8.49229 27.2737 8.2701 27.2839C8.05063 27.2942 7.79523 27.2976 7.5059 27.2976C7.31637 27.2976 7.10704 27.2839 6.8773 27.2566C6.64702 27.2293 6.48364 27.2089 6.39042 27.1953L6.24805 27.3999L7.33503 27.8571C7.43471 27.8025 7.53198 27.7615 7.62315 27.7376M10.3495 33.3814C10.1792 33.3882 10.0512 33.3541 9.96309 33.2825C9.87331 33.2108 9.82906 33.1084 9.82906 32.9787V32.3543C9.82906 32.2417 9.8357 32.1189 9.84832 31.9858C9.86112 31.8528 9.87192 31.7469 9.8779 31.6719L8.48818 31.5149L8.35505 31.7367C8.70796 31.8357 8.92152 31.9312 8.99457 32.0165C9.06654 32.1053 9.10265 32.2895 9.10265 32.5659V33.3609C9.10265 33.4837 9.14504 33.5861 9.23011 33.6646C9.31524 33.7431 9.44958 33.7806 9.63277 33.7806C9.68258 33.7738 10.1014 33.7568 10.8892 33.7363C11.6763 33.709 12.5947 33.7226 13.634 33.7703V33.2381C12.9911 33.3097 12.3393 33.3507 11.574 33.3609C10.8079 33.3711 10.4007 33.3814 10.3495 33.3814ZM8.78156 26.5708C8.86289 26.5571 8.9447 26.5503 9.02778 26.5435C9.30371 26.5298 9.5131 26.5264 9.65505 26.5264C9.79724 26.5264 10.0431 26.5332 10.2373 26.5469V26.0589C10.0034 26.0692 9.74797 26.0965 9.47011 26.0896C9.19376 26.0828 8.95177 26.0692 8.74389 26.0419C8.51089 26.0112 8.30548 25.9805 8.12863 25.9463C7.95185 25.9122 7.83037 25.885 7.76009 25.8679L7.55275 26.0658L8.50751 26.6356C8.59726 26.6078 8.68885 26.5861 8.78162 26.5708M10.3688 30.5152C10.5767 30.3616 10.726 30.191 10.8163 30C10.8205 29.9931 10.8245 29.9863 10.8282 29.9761C10.8935 29.8362 10.927 29.6792 10.927 29.5154C10.927 29.5052 10.9244 29.4949 10.9244 29.4847C10.9244 29.471 10.927 29.4609 10.927 29.4506C10.927 29.0548 10.7411 28.7238 10.3688 28.4508C9.99751 28.1813 9.55071 28.0448 9.02784 28.0448C8.50563 28.0448 8.05636 28.1812 7.6851 28.4509C7.47661 28.601 7.32923 28.775 7.2377 28.9661C7.23269 28.9729 7.23009 28.9831 7.22605 28.99C7.16162 29.1299 7.12715 29.2868 7.12715 29.4505C7.12715 29.4609 7.12944 29.4711 7.12944 29.4847C7.12944 29.4949 7.12715 29.5052 7.12715 29.5154C7.12715 29.9112 7.31384 30.2456 7.6851 30.5152C8.05642 30.7847 8.50431 30.9212 9.02778 30.9212C9.55077 30.9212 9.99685 30.7848 10.3688 30.5152ZM7.82705 29.4779C7.82705 29.1981 7.93917 28.9558 8.16691 28.7408C8.39418 28.5327 8.68097 28.4236 9.02778 28.4236C9.3857 28.4236 9.67564 28.5327 9.89626 28.7409C10.1174 28.9558 10.2271 29.1981 10.2271 29.478C10.2271 29.7645 10.1174 30.0136 9.89626 30.2251C9.6757 30.4367 9.3857 30.5425 9.02778 30.5425C8.68097 30.5425 8.39418 30.4367 8.16691 30.2252C7.93917 30.0136 7.82705 29.7645 7.82705 29.4779ZM45.0236 26.4002C45.1242 26.3797 45.2183 26.366 45.3068 26.3592C45.4327 26.349 45.852 26.3319 46.5681 26.3115C47.2832 26.2944 47.8516 26.2773 48.2737 26.2671C48.2485 26.7073 48.1984 27.1201 48.123 27.5022C48.0469 27.8845 47.9564 28.2495 47.8481 28.5975L48.2077 28.6726C48.4028 28.3076 48.5853 27.8879 48.7557 27.4204C48.9259 26.9495 49.0614 26.4275 49.1624 25.8542C49.1624 25.8542 46.1604 25.9873 44.8241 25.9873C44.6284 25.9873 44.4022 25.9736 44.1443 25.9463C43.8857 25.919 43.7028 25.8951 43.5956 25.885L43.4251 26.117L44.6823 26.5639C44.8085 26.4786 44.9212 26.4241 45.0236 26.4002Z" fill="white"/>
<path d="M83.4679 17.1056C83.2964 17.6686 83.0526 18.16 82.7366 18.5831C82.4389 18.9755 82.0862 19.2621 81.6779 19.4464C81.2702 19.6341 80.848 19.7261 80.4123 19.7261C79.984 19.7261 79.5676 19.6408 79.1666 19.4668C78.7641 19.2962 78.4042 19.0062 78.0885 18.6036C77.7777 18.2078 77.5346 17.713 77.3558 17.1227C77.1784 16.5358 77.089 15.7953 77.089 14.9014C77.089 14.0347 77.1836 13.2909 77.3714 12.6664C77.5588 12.042 77.804 11.5404 78.1086 11.1617C78.4516 10.7523 78.807 10.469 79.1756 10.3087C79.5452 10.1483 79.9577 10.0698 80.4124 10.0698C80.8411 10.0698 81.2543 10.1551 81.653 10.3292C82.052 10.4997 82.4105 10.7863 82.7266 11.1822C83.0298 11.5712 83.2715 12.0727 83.4534 12.6801C83.6349 13.2908 83.7254 14.0279 83.7254 14.8912C83.7254 15.8056 83.6401 16.5426 83.4679 17.1056ZM85.6365 9.34305C84.3634 7.98843 82.6184 7.31281 80.4016 7.31281C78.1791 7.31281 76.4344 7.99182 75.1679 9.35324C73.9017 10.7113 73.269 12.5606 73.269 14.9014C73.269 17.225 73.9017 19.0676 75.1679 20.4325C76.4344 21.8007 78.1791 22.4832 80.4016 22.4832C82.6184 22.4832 84.3634 21.8075 85.6365 20.4597C86.9093 19.1085 87.5465 17.2557 87.5465 14.9014C87.5465 12.547 86.9093 10.6942 85.6365 9.34305ZM19.7079 22.1727H15.2212L11.2012 16.2696L10.4798 17.2557V22.1727H6.77148V7.6199H10.4798V14.0995L15.2004 7.6199H19.4848L14.2244 14.3759L19.7079 22.1727Z" fill="white"/>
<path d="M83.4679 17.1056C83.2964 17.6686 83.0526 18.16 82.7366 18.5831C82.4389 18.9755 82.0862 19.2621 81.6779 19.4464C81.2702 19.6341 80.848 19.7261 80.4123 19.7261C79.984 19.7261 79.5676 19.6408 79.1666 19.4668C78.7641 19.2962 78.4042 19.0062 78.0885 18.6036C77.7777 18.2078 77.5346 17.713 77.3558 17.1227C77.1784 16.5358 77.089 15.7953 77.089 14.9014C77.089 14.0347 77.1836 13.2909 77.3714 12.6664C77.5588 12.042 77.804 11.5404 78.1086 11.1617C78.4516 10.7523 78.807 10.469 79.1756 10.3087C79.5452 10.1483 79.9577 10.0698 80.4124 10.0698C80.8411 10.0698 81.2543 10.1551 81.653 10.3292C82.052 10.4997 82.4105 10.7863 82.7266 11.1822C83.0298 11.5712 83.2715 12.0727 83.4534 12.6801C83.6349 13.2908 83.7254 14.0279 83.7254 14.8912C83.7254 15.8056 83.6401 16.5426 83.4679 17.1056ZM85.6365 9.34305C84.3634 7.98843 82.6184 7.31281 80.4016 7.31281C78.1791 7.31281 76.4344 7.99182 75.1679 9.35324C73.9017 10.7113 73.269 12.5606 73.269 14.9014C73.269 17.225 73.9017 19.0676 75.1679 20.4325C76.4344 21.8007 78.1791 22.4832 80.4016 22.4832C82.6184 22.4832 84.3634 21.8075 85.6365 20.4597C86.9093 19.1085 87.5465 17.2557 87.5465 14.9014C87.5465 12.547 86.9093 10.6942 85.6365 9.34305ZM19.7079 22.1727H15.2212L11.2012 16.2696L10.4798 17.2557V22.1727H6.77148V7.6199H10.4798V14.0995L15.2004 7.6199H19.4848L14.2244 14.3759L19.7079 22.1727Z" fill="white"/>
<path d="M29.2694 17.1056C29.0974 17.6686 28.8537 18.16 28.5379 18.5831C28.241 18.9755 27.8882 19.2621 27.4795 19.4464C27.0713 19.6341 26.6488 19.7261 26.214 19.7261C25.7847 19.7261 25.3699 19.6408 24.9674 19.4668C24.5647 19.2962 24.2057 19.0062 23.8889 18.6036C23.5796 18.2078 23.3359 17.713 23.1581 17.1227C22.9798 16.5358 22.891 15.7953 22.891 14.9014C22.891 14.0347 22.9847 13.2909 23.1726 12.6664C23.3595 12.042 23.6059 11.5404 23.9093 11.1617C24.2529 10.7523 24.6081 10.469 24.9768 10.3087C25.3464 10.1483 25.759 10.0698 26.214 10.0698C26.6422 10.0698 27.0554 10.1551 27.455 10.3292C27.8532 10.4997 28.2109 10.7863 28.5278 11.1822C28.8312 11.5712 29.0732 12.0727 29.2553 12.6801C29.436 13.2908 29.5267 14.0279 29.5267 14.8912C29.5267 15.8056 29.4407 16.5426 29.2695 17.1056H29.2694ZM31.4376 9.34305C30.1642 7.98843 28.4196 7.31281 26.2038 7.31281C23.9803 7.31281 22.2357 7.99182 20.9698 9.35324C19.7032 10.7113 19.0693 12.5606 19.0693 14.9014C19.0693 17.225 19.7032 19.0676 20.9698 20.4325C22.2357 21.8007 23.9803 22.4832 26.2038 22.4832C28.4196 22.4832 30.1642 21.8075 31.4376 20.4597C32.7109 19.1085 33.3477 17.2557 33.3477 14.9014C33.3477 12.547 32.7109 10.6942 31.4376 9.34305ZM56.4428 16.7098L54.6576 16.3004C54.0387 16.1741 53.4519 15.983 52.9136 15.7988C51.7141 15.3859 50.8435 14.8229 50.3165 14.1337C50.3082 14.1234 50.2972 14.1098 50.2896 14.0995C49.7685 13.3966 49.5036 12.6971 49.5036 11.6292C49.5036 10.6669 49.7723 9.84117 50.3165 9.12808V7.62675H46.0239L42.7689 14.8058L39.5019 7.6199H35.2356V22.1727H38.7209V12.5299L41.4021 18.7571H43.9265L46.6083 12.5299V22.1727H50.3165V18.8902C50.9233 19.2928 51.5651 19.6237 52.2348 19.8695C53.2338 20.2414 54.2195 20.429 55.1624 20.429C55.4051 20.429 55.7246 20.4017 56.1091 20.3505C56.5123 20.2994 56.8317 20.2175 57.0873 20.1015C57.3897 19.9718 57.6519 19.7875 57.8642 19.5521C58.0896 19.3031 58.1837 18.9721 58.2044 18.5728C58.2355 17.9928 58.0177 17.1466 56.4428 16.7098Z" fill="white"/>
<path d="M24.8838 30.0105L25.12 30.1777C26.1505 29.99 27.3703 29.3997 28.4201 28.6626C28.9089 28.881 29.5189 29.1574 29.9909 29.3792C30.5239 29.6317 30.9758 29.8706 31.3475 30.0923L31.7448 29.4884C31.2377 29.3323 30.7334 29.1673 30.2321 28.9936C29.7623 28.8333 29.1757 28.6115 28.7247 28.4409C29.6316 27.7551 30.3755 26.9737 30.6958 26.2708C30.6958 26.2708 29.3213 26.322 28.9147 26.3527C28.5086 26.3868 27.8507 26.4004 26.9438 26.4004C26.7486 26.4004 26.5172 26.3867 26.2491 26.3595C25.9809 26.3322 25.7947 26.3117 25.6866 26.3083L25.5175 26.5301L26.7748 26.9805C26.8866 26.9123 26.993 26.8645 27.0903 26.844C27.1873 26.8235 27.2782 26.8065 27.3604 26.7928C27.512 26.7724 27.7875 26.7587 28.1915 26.7451C28.5949 26.7348 29.1034 26.7212 29.489 26.7109C28.7195 27.9598 27.0536 29.3246 24.8838 30.0105ZM34.8031 27.5708C34.8837 27.5401 34.9471 27.5162 34.9976 27.5026C35.0855 27.4855 35.1937 27.465 35.3186 27.4411C35.4461 27.4206 35.5875 27.407 35.7446 27.407C36.0467 27.407 36.2999 27.4104 36.5002 27.4138C36.7029 27.4173 37.0102 27.4343 37.3377 27.4582V26.9702C36.8673 27.0283 35.0108 27.0931 34.7338 27.0931C34.5643 27.0931 34.3548 27.0761 34.1093 27.0419C33.8645 27.0043 33.6868 26.9839 33.5812 26.9702L33.4295 27.2125L34.5824 27.6902C34.6507 27.6459 34.725 27.6083 34.8031 27.5708ZM34.0814 28.1747C34.3882 28.806 34.4159 29.4099 34.4159 30.2152C34.4159 30.6178 35.0871 30.4848 35.0871 29.9934C35.0871 29.2087 34.737 28.5092 34.3269 28.0894L34.0814 28.1747ZM39.5243 25.3563C39.7839 25.4552 39.96 25.5644 40.0559 25.6839C40.1495 25.7999 40.1966 25.9671 40.1966 26.1786L40.2148 33.2008L40.309 34.1255H40.6786C40.7094 34.0197 40.7499 33.8389 40.796 33.5864C40.8439 33.3373 40.8663 33.1189 40.8663 32.9381L40.886 26.1957C40.886 26.0797 40.894 25.9432 40.9096 25.7896C40.9248 25.6395 40.9369 25.5201 40.9424 25.4416L39.6957 25.1516L39.5243 25.3563ZM37.9389 25.776C38.1961 25.8749 38.3739 25.9841 38.4677 26.1036C38.5621 26.223 38.6101 26.3868 38.6101 26.5983L38.614 28.1304C38.26 28.1611 37.7979 28.144 37.2837 28.0416L37.1581 28.2498L37.8901 28.6286C37.9656 28.5739 38.4074 28.533 38.6152 28.516L38.6184 29.7034C38.2551 29.7443 37.7208 29.7238 37.1669 29.6112L37.0479 29.8091L37.8105 30.2084C37.8994 30.1435 38.4937 30.0957 38.6196 30.0889L38.6275 32.8254L38.7222 33.7502H39.0909C39.1228 33.6443 39.1631 33.467 39.2102 33.2145C39.2575 32.9619 39.2814 32.747 39.2814 32.5662L39.3 26.6154C39.3 26.496 39.3079 26.3629 39.3225 26.2094C39.3385 26.0592 39.3506 25.9432 39.3562 25.8613L38.1099 25.5713L37.9389 25.776Z" fill="white"/>
<path d="M46.5001 29.4539H46.2228V28.2903C46.2228 28.1777 46.2321 28.0515 46.2512 27.9014C46.2695 27.7581 46.2853 27.6421 46.2981 27.5635L45.052 27.4134L44.9089 27.6079C45.1928 27.7103 45.3653 27.8059 45.4289 27.898C45.4919 27.9901 45.5237 28.1641 45.5237 28.4132V29.4641C45.1703 29.471 44.7778 29.4778 44.4736 29.4778C44.1676 29.4846 43.8955 29.4846 43.6558 29.4846C43.448 29.4846 43.1628 29.4675 42.8008 29.4334C42.4377 29.3993 42.1978 29.3754 42.0774 29.3618L41.879 29.6245L43.4297 30.1192C43.5417 30.051 43.66 29.9998 43.7779 29.9691C43.8979 29.9384 44.0051 29.9179 44.0991 29.9145C44.2253 29.9009 44.4888 29.877 44.8881 29.8463C45.2889 29.8156 45.8107 29.7985 46.4531 29.7985C47.0959 29.7985 47.7766 29.8054 48.4948 29.8155C49.2122 29.8258 49.9093 29.8394 50.4131 29.8702V29.2696C49.8522 29.3311 49.2064 29.3788 48.4758 29.4095C47.7441 29.4402 47.0865 29.4539 46.5001 29.4539ZM47.9536 30.9382C47.5226 30.614 47.0032 30.4502 46.3964 30.4502C45.7896 30.4502 45.2695 30.614 44.8383 30.9382C44.5977 31.1224 44.4258 31.3271 44.3201 31.5557C44.3156 31.566 44.3111 31.5728 44.3069 31.583C44.2315 31.7537 44.1917 31.9379 44.1917 32.1358C44.1917 32.1495 44.1945 32.1631 44.1945 32.1734C44.1945 32.1904 44.1917 32.2007 44.1917 32.2143C44.1917 32.692 44.4075 33.0912 44.8384 33.4154C45.2695 33.7395 45.7895 33.9033 46.3964 33.9033C47.0022 33.9033 47.5218 33.7395 47.9536 33.4153C48.195 33.2311 48.3658 33.0264 48.472 32.7977C48.4782 32.7876 48.4813 32.7807 48.4865 32.7705C48.5612 32.5999 48.601 32.4156 48.601 32.2143C48.601 32.2006 48.5988 32.1904 48.5988 32.1768C48.5988 32.1631 48.601 32.1495 48.601 32.1358C48.601 31.6616 48.3848 31.2623 47.9537 30.9382L47.9536 30.9382ZM47.4589 33.1321C47.1899 33.4017 46.8355 33.5416 46.3964 33.5416C45.9707 33.5416 45.6219 33.4017 45.3446 33.1322C45.0669 32.8592 44.9282 32.5384 44.9282 32.1699C44.9282 31.8116 45.0669 31.4944 45.3445 31.2214C45.6219 30.9484 45.9707 30.8119 46.3963 30.8119C46.8355 30.8119 47.1899 30.9484 47.4589 31.2214C47.7282 31.4944 47.8631 31.8116 47.8631 32.1699C47.8631 32.5384 47.7283 32.8591 47.4589 33.1321ZM28.721 31.856V30.8562C28.721 30.7403 28.7302 30.6072 28.7484 30.4639C28.7676 30.3172 28.7827 30.2011 28.7946 30.1226L27.5583 29.9657L27.4065 30.1772C27.6831 30.2728 27.8484 30.3684 27.9022 30.4707C27.9563 30.5731 27.9831 30.7437 27.9831 30.9791V31.856C27.5423 31.8628 27.0706 31.8697 26.6915 31.8765C26.3128 31.8799 25.9831 31.8833 25.7003 31.8833C25.4908 31.8833 25.2065 31.8696 24.8437 31.8321C24.4827 31.798 24.2411 31.7776 24.1226 31.7639L23.9229 32.0335L25.4724 32.5282C25.581 32.4626 25.6987 32.4132 25.8219 32.3815C25.9416 32.3542 26.0489 32.3337 26.1437 32.3235C26.2693 32.3098 26.5329 32.2859 26.9323 32.2518C27.3329 32.2177 27.8543 32.2006 28.4972 32.2006C29.139 32.2006 29.8191 32.2075 30.5387 32.2143C31.256 32.2246 31.9524 32.2484 32.4569 32.2791V31.6717C31.9145 31.7332 31.2921 31.7776 30.586 31.8083C29.8798 31.8424 29.3008 31.856 28.721 31.856Z" fill="white"/>
<path d="M36.3168 30.7303L36.8024 28.816C36.8348 28.7047 36.8667 28.5932 36.8981 28.4816C36.9288 28.369 36.9563 28.2838 36.9827 28.2223L35.8758 27.8743L35.7074 28.0688C35.9541 28.1882 36.0938 28.3008 36.1323 28.4066C36.1709 28.5124 36.1709 28.6795 36.1323 28.9116L35.8172 30.7849C35.0919 30.8463 34.377 30.836 33.4295 30.7098L33.2988 30.9793L34.4486 31.4707C34.6222 31.3922 35.1081 31.2933 35.1973 31.2899C35.6441 31.2318 36.0577 31.1739 36.4385 31.1124C36.821 31.0476 37.1843 30.9691 37.5305 30.8702L37.4558 30.5631C37.0429 30.6279 36.6726 30.6859 36.3168 30.7303Z" fill="white"/>
</g>
<defs>
<clipPath id="clip0_2370_6797">
<rect width="87.7503" height="34.1251" fill="white" transform="translate(0.154297)"/>
</clipPath>
</defs>
</svg>
