<svg width="184" height="35" viewBox="0 0 184 35" fill="none" xmlns="http://www.w3.org/2000/svg">
<path d="M11.4116 8.59521H15.3571L22.9339 20.5892V8.59521H26.6332V26.328H22.6652L15.1328 14.3792V26.328H11.4116V8.59521ZM30.1299 8.59521H34.0754V26.3282H30.1299V8.59521ZM44.4996 12.9219L39.6803 26.328H35.6674L42.5047 8.59521H46.5623L53.3099 26.328H49.1854L44.4996 12.9219Z" fill="white"/>
<path d="M48.1317 20.5891L49.1855 23.4805H39.7471L40.7787 20.5891H48.1317Z" fill="white"/>
<path d="M60.0928 22.5292H60.9208L62.5007 25.0693H62.5111V22.5292H63.2899V26.3151H62.4574L60.883 23.7806H60.8723V26.3151H60.0928V22.5292ZM65.0556 22.5292H65.9087L67.3255 26.3151H66.4604L66.1737 25.4716H64.759L64.4618 26.3151H63.6183L65.0556 22.5292ZM64.9764 24.8511H65.9569L65.4801 23.4625H65.4695L64.9764 24.8511ZM68.0995 23.2287H66.9645V22.5292H70.0662V23.2287H68.9309V26.3151H68.0995V23.2287ZM70.5002 22.5292H71.333V26.3155H70.5002V22.5292ZM73.7613 22.439C74.9332 22.439 75.6223 23.3137 75.6223 24.4373C75.6223 25.5302 74.9331 26.4047 73.7613 26.4047C72.5895 26.4047 71.9001 25.5303 71.9001 24.4373C71.8999 23.3138 72.5895 22.439 73.7613 22.439ZM73.7613 25.7046C74.5087 25.7046 74.789 25.0693 74.789 24.4373C74.789 23.7746 74.5087 23.1391 73.7613 23.1391C73.0138 23.1391 72.7327 23.7747 72.7327 24.4373C72.7327 25.0693 73.0138 25.7046 73.7613 25.7046ZM76.1896 22.5292H77.0166L78.5962 25.0693H78.6068V22.5292H79.3865V26.3151H78.5539L76.9797 23.7806H76.9691V26.3151H76.1896V22.5292ZM81.1516 22.5292H82.0044L83.4213 26.3151H82.557L82.2702 25.4716H80.8549L80.5583 26.3151H79.7149L81.1516 22.5292ZM81.0723 24.8511H82.0527L81.5756 23.4625H81.5652L81.0723 24.8511ZM83.7494 22.5292H84.5818V25.6144H86.427V26.3151H83.7494V22.5292ZM88.3669 22.5292H89.1999V26.3155H88.3669V22.5292ZM89.9303 22.5292H90.7584L92.3382 25.0693H92.3489V22.5292H93.1283V26.3151H92.2955L90.7223 23.7806H90.7107V26.3151H89.9303V22.5292ZM93.8605 22.5292H96.5216V23.2287H94.6931V24.1037H96.2785V24.7509H94.6931V26.3151H93.8605V22.5292ZM98.7001 22.439C99.8733 22.439 100.561 23.3137 100.561 24.4373C100.561 25.5302 99.8733 26.4047 98.7001 26.4047C97.5298 26.4047 96.839 25.5303 96.839 24.4373C96.839 23.3138 97.5298 22.439 98.7001 22.439ZM98.7001 25.7046C99.4479 25.7046 99.7294 25.0693 99.7294 24.4373C99.7294 23.7746 99.4479 23.1391 98.7001 23.1391C97.9538 23.1391 97.6714 23.7747 97.6714 24.4373C97.6716 25.0693 97.9538 25.7046 98.7001 25.7046ZM101.128 22.5292H103.17C103.848 22.5292 104.277 23.0006 104.277 23.5744C104.277 24.0193 104.098 24.3533 103.679 24.5219V24.5328C104.087 24.639 104.204 25.0366 104.231 25.4189C104.246 25.657 104.241 26.1024 104.39 26.3151H103.557C103.456 26.0753 103.467 25.7105 103.424 25.4078C103.367 25.0102 103.212 24.8356 102.793 24.8356H101.962V26.315H101.129V22.5292H101.128ZM101.962 24.2409H102.874C103.244 24.2409 103.446 24.0834 103.446 23.7012C103.446 23.3349 103.244 23.1763 102.874 23.1763H101.962V24.2409ZM104.955 22.5292H106.129L107.014 25.1317H107.024L107.862 22.5292H109.033V26.3151H108.253V23.6313H108.243L107.316 26.3151H106.674L105.747 23.6584H105.736V26.3151H104.955V22.5292ZM110.799 22.5292H111.653L113.068 26.3151H112.204L111.918 25.4716H110.502L110.205 26.3151H109.363L110.799 22.5292ZM110.719 24.8511H111.7L111.224 23.4625H111.212L110.719 24.8511ZM113.842 23.2287H112.708V22.5292H115.809V23.2287H114.676V26.3151H113.842V23.2287ZM116.244 22.5292H117.076V26.3155H116.244V22.5292ZM119.505 22.439C120.677 22.439 121.366 23.3137 121.366 24.4373C121.366 25.5302 120.677 26.4047 119.505 26.4047C118.332 26.4047 117.645 25.5303 117.645 24.4373C117.645 23.3138 118.332 22.439 119.505 22.439ZM119.505 25.7046C120.252 25.7046 120.533 25.0693 120.533 24.4373C120.533 23.7746 120.252 23.1391 119.505 23.1391C118.757 23.1391 118.475 23.7747 118.475 24.4373C118.475 25.0693 118.757 25.7046 119.505 25.7046ZM121.932 22.5292H122.76L124.341 25.0693H124.35V22.5292H125.13V26.3151H124.298L122.722 23.7806H122.712V26.3151H121.932V22.5292ZM127.902 25.058C127.902 25.5618 128.294 25.7588 128.74 25.7588C129.032 25.7588 129.478 25.6731 129.478 25.2864C129.478 24.8785 128.911 24.8082 128.354 24.6604C127.791 24.5122 127.224 24.2947 127.224 23.5848C127.224 22.81 127.955 22.439 128.639 22.439C129.429 22.439 130.156 22.7832 130.156 23.6584H129.349C129.323 23.2019 129.001 23.0852 128.602 23.0852C128.338 23.0852 128.029 23.1972 128.029 23.5158C128.029 23.8066 128.209 23.8438 129.159 24.088C129.434 24.1565 130.283 24.3314 130.283 25.1911C130.283 25.8855 129.736 26.4047 128.709 26.4047C127.87 26.4047 127.086 25.9914 127.097 25.058H127.902ZM132.472 22.439C133.644 22.439 134.333 23.3137 134.333 24.4373C134.333 25.5302 133.644 26.4047 132.472 26.4047C131.301 26.4047 130.613 25.5303 130.613 24.4373C130.612 23.3138 131.301 22.439 132.472 22.439ZM132.472 25.7046C133.22 25.7046 133.502 25.0693 133.502 24.4373C133.502 23.7746 133.22 23.1391 132.472 23.1391C131.725 23.1391 131.445 23.7747 131.445 24.4373C131.445 25.0693 131.725 25.7046 132.472 25.7046ZM137.424 23.8012C137.371 23.4248 137.011 23.1391 136.597 23.1391C135.85 23.1391 135.569 23.7747 135.569 24.4373C135.569 25.0693 135.85 25.7046 136.597 25.7046C137.106 25.7046 137.392 25.3546 137.456 24.857H138.263C138.177 25.8004 137.524 26.4047 136.597 26.4047C135.426 26.4047 134.737 25.5303 134.737 24.4373C134.737 23.3137 135.426 22.439 136.597 22.439C137.43 22.439 138.13 22.9266 138.231 23.8012H137.424ZM138.829 22.5292H139.662V26.3155H138.829V22.5292ZM140.394 22.5292H143.225V23.2287H141.227V24.0402H143.06V24.6871H141.227V25.6144H143.267V26.3151H140.394V22.5292ZM144.667 23.2287H143.532V22.5292H146.634V23.2287H145.499V26.3151H144.667V23.2287ZM148.049 24.8408L146.655 22.5292H147.593L148.478 24.0244L149.359 22.5292H150.286L148.883 24.8625V26.3151H148.049V24.8408ZM153.112 22.5292H153.966L155.382 26.3151H154.517L154.23 25.4716H152.815L152.519 26.3151H151.675L153.112 22.5292ZM153.032 24.8511H154.014L153.536 23.4625H153.525L153.032 24.8511ZM158.445 25.8854C158.154 26.2616 157.772 26.4047 157.407 26.4047C156.235 26.4047 155.545 25.5303 155.545 24.4373C155.545 23.3137 156.235 22.4393 157.407 22.4393C158.181 22.4393 158.912 22.9169 159.002 23.7747H158.207C158.112 23.3562 157.799 23.1391 157.407 23.1391C156.659 23.1391 156.378 23.7747 156.378 24.4373C156.378 25.0693 156.659 25.7049 157.407 25.7049C157.947 25.7049 158.26 25.4134 158.307 24.8881H157.47V24.2686H159.061V26.3151H158.53L158.445 25.8854ZM159.734 22.5292H162.565V23.2287H160.566V24.0402H162.4V24.6871H160.566V25.6144H162.607V26.3151H159.734V22.5292ZM163.169 22.5292H163.996L165.577 25.0693H165.587V22.5292H166.366V26.3151H165.534L163.96 23.7806H163.949V26.3151H163.169V22.5292ZM169.622 23.8012C169.568 23.4248 169.209 23.1391 168.794 23.1391C168.047 23.1391 167.767 23.7747 167.767 24.4373C167.767 25.0693 168.047 25.7046 168.794 25.7046C169.304 25.7046 169.59 25.3546 169.653 24.857H170.46C170.375 25.8004 169.722 26.4047 168.794 26.4047C167.623 26.4047 166.934 25.5303 166.934 24.4373C166.934 23.3137 167.623 22.439 168.794 22.439C169.627 22.439 170.327 22.9266 170.427 23.8012H169.622ZM172.007 24.8408L170.614 22.5292H171.552L172.437 24.0244L173.317 22.5292H174.245L172.84 24.8625V26.3151H172.007V24.8408Z" fill="white"/>
<path d="M62.5956 15.6886H60.8506V19.1923C60.8506 19.3786 60.9366 19.4784 61.1368 19.4784H68.1313V18.3487H62.7389C62.6529 18.3487 62.5956 18.2915 62.5956 18.2053V15.6886ZM65.1132 10.5533V9.42262H58.3618V10.5533H65.1132ZM67.8453 8.19305H66.1288V16.3032H67.8453V8.19305ZM58.9626 12.1552C58.9626 13.7566 60.1925 14.8013 61.7376 14.8013C63.268 14.8013 64.5127 13.7568 64.5127 12.1552C64.5127 10.5535 63.268 9.49457 61.7376 9.49457C60.1926 9.49457 58.9626 10.5533 58.9626 12.1552ZM60.8363 9.5662H62.6387V7.86347H60.8363V9.5662ZM67.4162 12.3552H69.5048V11.1966H67.4162V12.3552ZM60.6788 12.1263C60.6788 11.1683 61.1513 10.5533 61.7376 10.5533C62.3098 10.5533 62.7818 11.1683 62.7818 12.1263C62.7818 13.0704 62.3096 13.6858 61.7376 13.6858C61.1513 13.6858 60.6788 13.0704 60.6788 12.1263ZM76.943 19.6222H78.6737V15.7886C78.6737 15.5881 78.5735 15.5021 78.3875 15.5021H71.1068V16.6321H76.8001C76.8858 16.6321 76.943 16.6897 76.943 16.7754V19.6222ZM76.9285 12.713H78.6595V8.65022C78.6595 8.45002 78.588 8.3642 78.3733 8.3642H70.9495V9.49457H76.7854C76.8712 9.49457 76.9285 9.55135 76.9285 9.6375V12.713ZM70.0624 13.6284H79.6037V12.4693H70.0624V13.6284ZM75.6839 13.3282H73.982V15.7886H75.6839V13.3282ZM111.788 17.9193H121.185V16.7612H111.788V17.9193ZM117.352 13.9571H115.622V17.047H117.352V13.9571ZM119.941 14.5297C120.156 14.5297 120.227 14.4435 120.227 14.2433V8.46471H118.511V13.2564C118.511 13.3425 118.454 13.3995 118.368 13.3995H114.605C114.52 13.3995 114.463 13.3425 114.463 13.2564V8.46471H112.746V14.2433C112.746 14.4435 112.818 14.5297 113.032 14.5297H119.941ZM114.019 11.5256H118.983V10.3815H114.019V11.5256ZM108.941 8.19305H110.658V14.6871H108.941V8.19305ZM109.371 11.8261H106.967V10.7104H109.371V11.8261ZM142.527 8.19305H140.81V19.3354H142.527V8.19305ZM133.086 17.3331H141.269V16.1748H133.086V17.3331ZM151.411 16.3032H153.127V8.19305H151.411V16.3032ZM150.066 9.59459V8.46471H144.144V9.59459H150.066ZM147.835 15.5452H146.09V19.1923C146.09 19.3786 146.175 19.4784 146.376 19.4784H153.37V18.3487H147.977C147.891 18.3487 147.835 18.2915 147.835 18.2053V15.5452H147.835ZM163.025 9.98078V8.92237H155.33V9.98062H163.025V9.98078ZM156.231 11.0534C156.231 12.2696 157.533 13.0704 159.163 13.0704C160.766 13.0704 162.096 12.2696 162.096 11.0534C162.096 9.82301 160.766 9.02239 159.163 9.02239C157.533 9.02239 156.231 9.82301 156.231 11.0534ZM158.262 8.99383H160.064V7.7207H158.262V8.99383ZM157.933 10.9818C157.933 10.3813 158.476 9.98062 159.163 9.98062C159.836 9.98062 160.379 10.3813 160.379 10.9818C160.379 11.5828 159.836 11.969 159.163 11.969C158.476 11.969 157.933 11.5828 157.933 10.9818ZM172.281 16.9183H173.997V8.19305H172.281V16.9183ZM172.709 14.8013H170.091V15.917H172.709V14.8013ZM164.599 14.1572H171.593V12.9989H164.599V14.1572ZM168.819 13.8145H167.102V15.7888H168.819V13.8145ZM165.429 10.181C165.429 11.597 166.616 12.5129 168.09 12.5129C169.563 12.5129 170.764 11.597 170.764 10.181C170.764 8.76476 169.563 7.83524 168.09 7.83524C166.616 7.83524 165.429 8.76492 165.429 10.181ZM167.145 10.181C167.145 9.42278 167.56 8.95076 168.089 8.95076C168.618 8.95076 169.033 9.42278 169.033 10.181C169.033 10.9248 168.618 11.3968 168.089 11.3968C167.56 11.3968 167.145 10.9248 167.145 10.181ZM168.561 16.3318H166.816V19.1923C166.816 19.3786 166.902 19.4784 167.102 19.4784H174.24V18.3487H168.704C168.618 18.3487 168.561 18.2915 168.561 18.2053V16.3318ZM91.032 14.3293H100.573V13.1702H91.032V14.3293ZM86.8269 9.59459V8.46471H80.8478V9.59459H86.8269ZM89.831 8.19305H88.1144V19.3354H89.831V8.19305ZM93.7646 8.3071H92.0336V11.8114C92.0336 12.0121 92.1051 12.0979 92.32 12.0979H99.8437V10.9676H93.9077C93.822 10.9676 93.7646 10.9103 93.7646 10.8246V8.3071ZM130.841 8.19305H129.124V19.3354H130.841V8.19305ZM130.412 12.2123H132.5V11.0532H130.412V12.2123ZM154.428 14.701H163.97V13.5427H154.428V14.701ZM107.854 13.1278C106.295 12.7277 105.451 11.597 105.451 10.0092V9.13692H103.778V9.70912C103.778 12.1552 105.236 13.7855 107.854 14.2719V13.1278ZM101.359 14.4151C103.978 13.9286 105.422 12.2978 105.422 9.85238V9.42262H103.749V10.1524C103.749 11.74 102.919 12.8697 101.359 13.2706V14.4151ZM107.525 9.59459V8.46471H101.746V9.59459H107.525ZM150.452 13.7426C148.85 13.3993 147.92 12.2412 147.92 10.5956V9.20806H146.247V10.2954C146.247 12.7987 147.792 14.4582 150.452 14.887L150.452 13.7426ZM143.83 15.0018C146.447 14.5155 147.891 12.8844 147.891 10.4384V9.49457H146.218V10.739C146.218 12.3267 145.388 13.4567 143.83 13.857V15.0018ZM87.2274 14.7441C85.6255 14.4008 84.653 12.8131 84.653 11.1683V9.20806H82.9793V10.8677C82.9793 13.3709 84.5668 15.4592 87.2274 15.8883V14.7441ZM80.5192 15.8596C83.1364 15.3735 84.6241 13.4567 84.6241 11.0106V9.49457H82.9507V11.3112C82.9507 12.8986 82.078 14.3151 80.5192 14.7157V15.8596ZM128.238 14.7441C126.636 14.4008 125.663 12.67 125.663 11.0248V8.32129H123.989V10.7246C123.989 13.2275 125.577 15.4592 128.238 15.8883V14.7441ZM121.529 15.8596C124.147 15.3735 125.635 13.3136 125.635 10.8677V8.32129H123.961V11.1683C123.961 12.7556 123.088 14.3151 121.529 14.7157V15.8596ZM137.535 14.072H135.819V16.5321H137.535V14.072ZM139.981 10.5533V9.42262H133.373V10.5533H139.981ZM133.916 12.0263C133.916 13.5566 135.132 14.5439 136.677 14.5439C138.208 14.5439 139.438 13.5566 139.438 12.0263C139.438 10.4957 138.208 9.49457 136.677 9.49457C135.132 9.49457 133.916 10.4957 133.916 12.0263ZM135.776 9.5662H137.578V7.86347H135.776V9.5662ZM135.633 11.9974C135.633 11.0965 136.076 10.5533 136.677 10.5533C137.264 10.5533 137.707 11.0963 137.707 11.9974C137.707 12.8845 137.264 13.4283 136.677 13.4283C136.076 13.4283 135.633 12.8845 135.633 11.9974ZM155.873 17.5191C155.873 18.9358 157.332 19.865 159.163 19.865C160.98 19.865 162.453 18.9358 162.453 17.5191C162.453 16.0886 160.98 15.1586 159.163 15.1586C157.332 15.1586 155.873 16.0886 155.873 17.5191ZM157.59 17.5191C157.59 16.7754 158.319 16.2746 159.163 16.2746C159.993 16.2746 160.722 16.7754 160.722 17.5191C160.722 18.2631 159.993 18.7491 159.163 18.7491C158.319 18.7491 157.59 18.2629 157.59 17.5191ZM92.4769 17.4476C92.4769 18.9067 93.9217 19.8648 95.7669 19.8648C97.598 19.8648 99.0571 18.9067 99.0571 17.4476C99.0571 15.9741 97.598 15.0157 95.7669 15.0157C93.9217 15.0157 92.4769 15.9741 92.4769 17.4476ZM94.1934 17.4476C94.1934 16.6608 94.8946 16.1312 95.7669 16.1312C96.6259 16.1312 97.3263 16.6608 97.3263 17.4476C97.3263 18.234 96.6259 18.7491 95.7669 18.7491C94.8946 18.7491 94.1934 18.2342 94.1934 17.4476ZM103.663 17.2758C103.663 18.8496 105.108 19.865 106.868 19.865C108.641 19.865 110.1 18.8495 110.1 17.2758C110.1 15.7025 108.641 14.6726 106.868 14.6726C105.108 14.6726 103.663 15.7025 103.663 17.2758ZM105.38 17.2758C105.38 16.361 106.052 15.7888 106.868 15.7888C107.697 15.7888 108.369 16.361 108.369 17.2758C108.369 18.1769 107.697 18.7491 106.868 18.7491C106.052 18.7491 105.38 18.1769 105.38 17.2758Z" fill="white"/>
<path d="M62.5956 15.6883H60.8506V19.192C60.8506 19.3783 60.9366 19.4782 61.1368 19.4782H68.1313V18.3485H62.7389C62.6529 18.3485 62.5956 18.2912 62.5956 18.2051V15.6883ZM65.1132 10.5531V9.42237H58.3618V10.5531H65.1132ZM67.8453 8.1928H66.1288V16.303H67.8453V8.1928ZM58.9626 12.155C58.9626 13.7564 60.1925 14.8011 61.7376 14.8011C63.268 14.8011 64.5127 13.7565 64.5127 12.155C64.5127 10.5532 63.268 9.49433 61.7376 9.49433C60.1926 9.49433 58.9626 10.5531 58.9626 12.155ZM60.8363 9.56595H62.6387V7.86322H60.8363V9.56595ZM67.4162 12.355H69.5048V11.1964H67.4162V12.355ZM60.6788 12.1261C60.6788 11.168 61.1513 10.5531 61.7376 10.5531C62.3098 10.5531 62.7818 11.168 62.7818 12.1261C62.7818 13.0701 62.3096 13.6856 61.7376 13.6856C61.1513 13.6856 60.6788 13.0701 60.6788 12.1261ZM76.943 19.6219H78.6737V15.7884C78.6737 15.5878 78.5735 15.5018 78.3875 15.5018H71.1068V16.6319H76.8001C76.8858 16.6319 76.943 16.6895 76.943 16.7751V19.6219ZM76.9285 12.7128H78.6595V8.64998C78.6595 8.44978 78.588 8.36396 78.3733 8.36396H70.9495V9.49433H76.7854C76.8712 9.49433 76.9285 9.55111 76.9285 9.63725V12.7128ZM70.0624 13.6281H79.6037V12.469H70.0624V13.6281ZM75.6839 13.3279H73.982V15.7884H75.6839V13.3279ZM111.788 17.919H121.185V16.7609H111.788V17.919ZM117.352 13.9569H115.622V17.0468H117.352V13.9569ZM119.941 14.5294C120.156 14.5294 120.227 14.4433 120.227 14.2431V8.46446H118.511V13.2561C118.511 13.3423 118.454 13.3992 118.368 13.3992H114.605C114.52 13.3992 114.463 13.3423 114.463 13.2561V8.46446H112.746V14.2431C112.746 14.4433 112.818 14.5294 113.032 14.5294H119.941ZM114.019 11.5253H118.983V10.3813H114.019V11.5253ZM108.941 8.1928H110.658V14.6869H108.941V8.1928ZM109.371 11.8259H106.967V10.7102H109.371V11.8259ZM142.527 8.1928H140.81V19.3351H142.527V8.1928ZM133.086 17.3328H141.269V16.1746H133.086V17.3328ZM151.411 16.303H153.127V8.1928H151.411V16.303ZM150.066 9.59434V8.46446H144.144V9.59434H150.066ZM147.835 15.5449H146.09V19.192C146.09 19.3783 146.175 19.4782 146.376 19.4782H153.37V18.3485H147.977C147.891 18.3485 147.835 18.2912 147.835 18.2051V15.5449H147.835ZM163.025 9.98054V8.92213H155.33V9.98038H163.025V9.98054ZM156.231 11.0531C156.231 12.2693 157.533 13.0701 159.163 13.0701C160.766 13.0701 162.096 12.2693 162.096 11.0531C162.096 9.82277 160.766 9.02214 159.163 9.02214C157.533 9.02214 156.231 9.82277 156.231 11.0531ZM158.262 8.99359H160.064V7.72046H158.262V8.99359ZM157.933 10.9815C157.933 10.3811 158.476 9.98038 159.163 9.98038C159.836 9.98038 160.379 10.3811 160.379 10.9815C160.379 11.5826 159.836 11.9688 159.163 11.9688C158.476 11.9688 157.933 11.5826 157.933 10.9815ZM172.281 16.9181H173.997V8.1928H172.281V16.9181ZM172.709 14.8011H170.091V15.9168H172.709V14.8011ZM164.599 14.1569H171.593V12.9987H164.599V14.1569ZM168.819 13.8143H167.102V15.7885H168.819V13.8143ZM165.429 10.1807C165.429 11.5968 166.616 12.5126 168.09 12.5126C169.563 12.5126 170.764 11.5968 170.764 10.1807C170.764 8.76451 169.563 7.835 168.09 7.835C166.616 7.835 165.429 8.76468 165.429 10.1807ZM167.145 10.1807C167.145 9.42254 167.56 8.95052 168.089 8.95052C168.618 8.95052 169.033 9.42254 169.033 10.1807C169.033 10.9246 168.618 11.3966 168.089 11.3966C167.56 11.3966 167.145 10.9246 167.145 10.1807ZM168.561 16.3315H166.816V19.192C166.816 19.3783 166.902 19.4782 167.102 19.4782H174.24V18.3485H168.704C168.618 18.3485 168.561 18.2912 168.561 18.2051V16.3315ZM91.032 14.3291H100.573V13.17H91.032V14.3291ZM86.8269 9.59434V8.46446H80.8478V9.59434H86.8269ZM89.831 8.1928H88.1144V19.3351H89.831V8.1928ZM93.7646 8.30685H92.0336V11.8112C92.0336 12.0119 92.1051 12.0977 92.32 12.0977H99.8437V10.9673H93.9077C93.822 10.9673 93.7646 10.9101 93.7646 10.8244V8.30685ZM130.841 8.1928H129.124V19.3351H130.841V8.1928ZM130.412 12.2121H132.5V11.053H130.412V12.2121ZM154.428 14.7007H163.97V13.5425H154.428V14.7007ZM107.854 13.1276C106.295 12.7275 105.451 11.5968 105.451 10.0089V9.13668H103.778V9.70888C103.778 12.155 105.236 13.7852 107.854 14.2716V13.1276ZM101.359 14.4149C103.978 13.9283 105.422 12.2976 105.422 9.85213V9.42237H103.749V10.1522C103.749 11.7397 102.919 12.8694 101.359 13.2703V14.4149ZM107.525 9.59434V8.46446H101.746V9.59434H107.525ZM150.452 13.7423C148.85 13.3991 147.92 12.2409 147.92 10.5953V9.20782H146.247V10.2951C146.247 12.7985 147.792 14.458 150.452 14.8867L150.452 13.7423ZM143.83 15.0016C146.447 14.5152 147.891 12.8841 147.891 10.4382V9.49433H146.218V10.7387C146.218 12.3264 145.388 13.4565 143.83 13.8567V15.0016ZM87.2274 14.7438C85.6255 14.4005 84.653 12.8128 84.653 11.168V9.20782H82.9793V10.8675C82.9793 13.3707 84.5668 15.4589 87.2274 15.888V14.7438ZM80.5192 15.8593C83.1364 15.3733 84.6241 13.4565 84.6241 11.0104V9.49433H82.9507V11.3109C82.9507 12.8983 82.078 14.3149 80.5192 14.7154V15.8593ZM128.238 14.7438C126.636 14.4005 125.663 12.6697 125.663 11.0246V8.32105H123.989V10.7244C123.989 13.2272 125.577 15.4589 128.238 15.888V14.7438ZM121.529 15.8593C124.147 15.3733 125.635 13.3134 125.635 10.8675V8.32105H123.961V11.168C123.961 12.7554 123.088 14.3149 121.529 14.7154V15.8593ZM137.535 14.0718H135.819V16.5319H137.535V14.0718ZM139.981 10.5531V9.42237H133.373V10.5531H139.981ZM133.916 12.0261C133.916 13.5563 135.132 14.5436 136.677 14.5436C138.208 14.5436 139.438 13.5563 139.438 12.0261C139.438 10.4955 138.208 9.49433 136.677 9.49433C135.132 9.49433 133.916 10.4955 133.916 12.0261ZM135.776 9.56595H137.578V7.86322H135.776V9.56595ZM135.633 11.9972C135.633 11.0962 136.076 10.5531 136.677 10.5531C137.264 10.5531 137.707 11.0961 137.707 11.9972C137.707 12.8843 137.264 13.4281 136.677 13.4281C136.076 13.4281 135.633 12.8843 135.633 11.9972ZM155.873 17.5188C155.873 18.9355 157.332 19.8647 159.163 19.8647C160.98 19.8647 162.453 18.9355 162.453 17.5188C162.453 16.0884 160.98 15.1584 159.163 15.1584C157.332 15.1584 155.873 16.0884 155.873 17.5188ZM157.59 17.5188C157.59 16.7751 158.319 16.2744 159.163 16.2744C159.993 16.2744 160.722 16.7751 160.722 17.5188C160.722 18.2628 159.993 18.7489 159.163 18.7489C158.319 18.7489 157.59 18.2627 157.59 17.5188ZM92.4769 17.4474C92.4769 18.9065 93.9217 19.8646 95.7669 19.8646C97.598 19.8646 99.0571 18.9065 99.0571 17.4474C99.0571 15.9739 97.598 15.0155 95.7669 15.0155C93.9217 15.0155 92.4769 15.9739 92.4769 17.4474ZM94.1934 17.4474C94.1934 16.6606 94.8946 16.131 95.7669 16.131C96.6259 16.131 97.3263 16.6606 97.3263 17.4474C97.3263 18.2338 96.6259 18.7489 95.7669 18.7489C94.8946 18.7489 94.1934 18.2339 94.1934 17.4474ZM103.663 17.2755C103.663 18.8494 105.108 19.8647 106.868 19.8647C108.641 19.8647 110.1 18.8492 110.1 17.2755C110.1 15.7022 108.641 14.6723 106.868 14.6723C105.108 14.6723 103.663 15.7022 103.663 17.2755ZM105.38 17.2755C105.38 16.3607 106.052 15.7885 106.868 15.7885C107.697 15.7885 108.369 16.3607 108.369 17.2755C108.369 18.1767 107.697 18.7489 106.868 18.7489C106.052 18.7489 105.38 18.1767 105.38 17.2755Z" fill="white"/>
<path d="M11.4116 8.59521H15.3571L22.9339 20.5892V8.59521H26.6332V26.328H22.6652L15.1328 14.3792V26.328H11.4116V8.59521ZM30.1299 8.59521H34.0754V26.3282H30.1299V8.59521ZM44.4996 12.9219L39.6803 26.328H35.6674L42.5047 8.59521H46.5623L53.3099 26.328H49.1854L44.4996 12.9219Z" fill="white"/>
<path d="M48.1317 20.5891L49.1855 23.4805H39.7471L40.7787 20.5891H48.1317Z" fill="white"/>
<path d="M60.0928 22.5292H60.9208L62.5007 25.0693H62.5111V22.5292H63.2899V26.3151H62.4574L60.883 23.7806H60.8723V26.3151H60.0928V22.5292ZM65.0556 22.5292H65.9087L67.3255 26.3151H66.4604L66.1737 25.4716H64.759L64.4618 26.3151H63.6183L65.0556 22.5292ZM64.9764 24.8511H65.9569L65.4801 23.4625H65.4695L64.9764 24.8511ZM68.0995 23.2287H66.9645V22.5292H70.0662V23.2287H68.9309V26.3151H68.0995V23.2287ZM70.5002 22.5292H71.333V26.3155H70.5002V22.5292ZM73.7613 22.439C74.9332 22.439 75.6223 23.3137 75.6223 24.4373C75.6223 25.5302 74.9331 26.4047 73.7613 26.4047C72.5895 26.4047 71.9001 25.5303 71.9001 24.4373C71.8999 23.3138 72.5895 22.439 73.7613 22.439ZM73.7613 25.7046C74.5087 25.7046 74.789 25.0693 74.789 24.4373C74.789 23.7746 74.5087 23.1391 73.7613 23.1391C73.0138 23.1391 72.7327 23.7747 72.7327 24.4373C72.7327 25.0693 73.0138 25.7046 73.7613 25.7046ZM76.1896 22.5292H77.0166L78.5962 25.0693H78.6068V22.5292H79.3865V26.3151H78.5539L76.9797 23.7806H76.9691V26.3151H76.1896V22.5292ZM81.1516 22.5292H82.0044L83.4213 26.3151H82.557L82.2702 25.4716H80.8549L80.5583 26.3151H79.7149L81.1516 22.5292ZM81.0723 24.8511H82.0527L81.5756 23.4625H81.5652L81.0723 24.8511ZM83.7494 22.5292H84.5818V25.6144H86.427V26.3151H83.7494V22.5292ZM88.3669 22.5292H89.1999V26.3155H88.3669V22.5292ZM89.9303 22.5292H90.7584L92.3382 25.0693H92.3489V22.5292H93.1283V26.3151H92.2955L90.7223 23.7806H90.7107V26.3151H89.9303V22.5292ZM93.8605 22.5292H96.5216V23.2287H94.6931V24.1037H96.2785V24.7509H94.6931V26.3151H93.8605V22.5292ZM98.7001 22.439C99.8733 22.439 100.561 23.3137 100.561 24.4373C100.561 25.5302 99.8733 26.4047 98.7001 26.4047C97.5298 26.4047 96.839 25.5303 96.839 24.4373C96.839 23.3138 97.5298 22.439 98.7001 22.439ZM98.7001 25.7046C99.4479 25.7046 99.7294 25.0693 99.7294 24.4373C99.7294 23.7746 99.4479 23.1391 98.7001 23.1391C97.9538 23.1391 97.6714 23.7747 97.6714 24.4373C97.6716 25.0693 97.9538 25.7046 98.7001 25.7046ZM101.128 22.5292H103.17C103.848 22.5292 104.277 23.0006 104.277 23.5744C104.277 24.0193 104.098 24.3533 103.679 24.5219V24.5328C104.087 24.639 104.204 25.0366 104.231 25.4189C104.246 25.657 104.241 26.1024 104.39 26.3151H103.557C103.456 26.0753 103.467 25.7105 103.424 25.4078C103.367 25.0102 103.212 24.8356 102.793 24.8356H101.962V26.315H101.129V22.5292H101.128ZM101.962 24.2409H102.874C103.244 24.2409 103.446 24.0834 103.446 23.7012C103.446 23.3349 103.244 23.1763 102.874 23.1763H101.962V24.2409ZM104.955 22.5292H106.129L107.014 25.1317H107.024L107.862 22.5292H109.033V26.3151H108.253V23.6313H108.243L107.316 26.3151H106.674L105.747 23.6584H105.736V26.3151H104.955V22.5292ZM110.799 22.5292H111.653L113.068 26.3151H112.204L111.918 25.4716H110.502L110.205 26.3151H109.363L110.799 22.5292ZM110.719 24.8511H111.7L111.224 23.4625H111.212L110.719 24.8511ZM113.842 23.2287H112.708V22.5292H115.809V23.2287H114.676V26.3151H113.842V23.2287ZM116.244 22.5292H117.076V26.3155H116.244V22.5292ZM119.505 22.439C120.677 22.439 121.366 23.3137 121.366 24.4373C121.366 25.5302 120.677 26.4047 119.505 26.4047C118.332 26.4047 117.645 25.5303 117.645 24.4373C117.645 23.3138 118.332 22.439 119.505 22.439ZM119.505 25.7046C120.252 25.7046 120.533 25.0693 120.533 24.4373C120.533 23.7746 120.252 23.1391 119.505 23.1391C118.757 23.1391 118.475 23.7747 118.475 24.4373C118.475 25.0693 118.757 25.7046 119.505 25.7046ZM121.932 22.5292H122.76L124.341 25.0693H124.35V22.5292H125.13V26.3151H124.298L122.722 23.7806H122.712V26.3151H121.932V22.5292ZM127.902 25.058C127.902 25.5618 128.294 25.7588 128.74 25.7588C129.032 25.7588 129.478 25.6731 129.478 25.2864C129.478 24.8785 128.911 24.8082 128.354 24.6604C127.791 24.5122 127.224 24.2947 127.224 23.5848C127.224 22.81 127.955 22.439 128.639 22.439C129.429 22.439 130.156 22.7832 130.156 23.6584H129.349C129.323 23.2019 129.001 23.0852 128.602 23.0852C128.338 23.0852 128.029 23.1972 128.029 23.5158C128.029 23.8066 128.209 23.8438 129.159 24.088C129.434 24.1565 130.283 24.3314 130.283 25.1911C130.283 25.8855 129.736 26.4047 128.709 26.4047C127.87 26.4047 127.086 25.9914 127.097 25.058H127.902ZM132.472 22.439C133.644 22.439 134.333 23.3137 134.333 24.4373C134.333 25.5302 133.644 26.4047 132.472 26.4047C131.301 26.4047 130.613 25.5303 130.613 24.4373C130.612 23.3138 131.301 22.439 132.472 22.439ZM132.472 25.7046C133.22 25.7046 133.502 25.0693 133.502 24.4373C133.502 23.7746 133.22 23.1391 132.472 23.1391C131.725 23.1391 131.445 23.7747 131.445 24.4373C131.445 25.0693 131.725 25.7046 132.472 25.7046ZM137.424 23.8012C137.371 23.4248 137.011 23.1391 136.597 23.1391C135.85 23.1391 135.569 23.7747 135.569 24.4373C135.569 25.0693 135.85 25.7046 136.597 25.7046C137.106 25.7046 137.392 25.3546 137.456 24.857H138.263C138.177 25.8004 137.524 26.4047 136.597 26.4047C135.426 26.4047 134.737 25.5303 134.737 24.4373C134.737 23.3137 135.426 22.439 136.597 22.439C137.43 22.439 138.13 22.9266 138.231 23.8012H137.424ZM138.829 22.5292H139.662V26.3155H138.829V22.5292ZM140.394 22.5292H143.225V23.2287H141.227V24.0402H143.06V24.6871H141.227V25.6144H143.267V26.3151H140.394V22.5292ZM144.667 23.2287H143.532V22.5292H146.634V23.2287H145.499V26.3151H144.667V23.2287ZM148.049 24.8408L146.655 22.5292H147.593L148.478 24.0244L149.359 22.5292H150.286L148.883 24.8625V26.3151H148.049V24.8408ZM153.112 22.5292H153.966L155.382 26.3151H154.517L154.23 25.4716H152.815L152.519 26.3151H151.675L153.112 22.5292ZM153.032 24.8511H154.014L153.536 23.4625H153.525L153.032 24.8511ZM158.445 25.8854C158.154 26.2616 157.772 26.4047 157.407 26.4047C156.235 26.4047 155.545 25.5303 155.545 24.4373C155.545 23.3137 156.235 22.4393 157.407 22.4393C158.181 22.4393 158.912 22.9169 159.002 23.7747H158.207C158.112 23.3562 157.799 23.1391 157.407 23.1391C156.659 23.1391 156.378 23.7747 156.378 24.4373C156.378 25.0693 156.659 25.7049 157.407 25.7049C157.947 25.7049 158.26 25.4134 158.307 24.8881H157.47V24.2686H159.061V26.3151H158.53L158.445 25.8854ZM159.734 22.5292H162.565V23.2287H160.566V24.0402H162.4V24.6871H160.566V25.6144H162.607V26.3151H159.734V22.5292ZM163.169 22.5292H163.996L165.577 25.0693H165.587V22.5292H166.366V26.3151H165.534L163.96 23.7806H163.949V26.3151H163.169V22.5292ZM169.622 23.8012C169.568 23.4248 169.209 23.1391 168.794 23.1391C168.047 23.1391 167.767 23.7747 167.767 24.4373C167.767 25.0693 168.047 25.7046 168.794 25.7046C169.304 25.7046 169.59 25.3546 169.653 24.857H170.46C170.375 25.8004 169.722 26.4047 168.794 26.4047C167.623 26.4047 166.934 25.5303 166.934 24.4373C166.934 23.3137 167.623 22.439 168.794 22.439C169.627 22.439 170.327 22.9266 170.427 23.8012H169.622ZM172.007 24.8408L170.614 22.5292H171.552L172.437 24.0244L173.317 22.5292H174.245L172.84 24.8625V26.3151H172.007V24.8408Z" fill="white"/>
</svg>
