<svg width="85" height="41" viewBox="0 0 85 41" fill="none" xmlns="http://www.w3.org/2000/svg">
<g clip-path="url(#clip0_2370_6774)">
<path d="M60.2445 26.8712C60.213 26.7294 60.1237 26.4772 59.9609 26.2881C59.9609 26.2881 59.714 25.9362 59.3253 25.8312C59.0154 25.7472 58.548 25.7051 58.1908 26.1253C58.1908 26.1253 56.2999 28.2998 51.6726 28.3944H51.6673H51.6095H51.1631H51.1578H51.1526H51.1473H51.1421H50.6904H50.6326C46.0052 28.2998 44.1144 26.1253 44.1144 26.1253C43.7572 25.7051 43.2897 25.7472 42.9798 25.8312C42.5912 25.9362 42.3443 26.2881 42.3443 26.2881C42.1815 26.4772 42.0922 26.7294 42.0607 26.8712C41.7823 28.1895 42.8065 28.8093 42.8065 28.8093C42.8065 28.8093 45.8687 30.9785 50.6378 31.0783H50.6904H51.1421H51.599H51.6043H51.6568C56.4207 30.9838 59.4881 28.8093 59.4881 28.8093C59.4881 28.8093 60.5229 28.1895 60.2445 26.8712Z" fill="white"/>
<path d="M14.6698 22.5058C16.1248 22.385 17.3118 21.907 18.2047 21.0877C19.3812 20.0319 19.98 18.4825 19.98 16.4813C19.98 14.7585 19.292 13.3246 17.9368 12.2216C16.6868 11.1764 15.1898 10.6511 13.4828 10.6511H8.78189C8.16736 10.6511 7.67888 10.8455 7.32697 11.2236L7.30596 11.2446C7.00132 11.6071 6.84375 12.064 6.84375 12.6155V30.2846H10.5152V23.4092L19.2499 30.3161L20.6944 27.1069L14.6698 22.5058ZM13.404 19.5014H10.9564C10.7463 19.5014 10.6202 19.4857 10.5467 19.4699C10.5362 19.3964 10.5204 19.2703 10.5204 19.0655V14.4434C10.5204 14.2438 10.5309 14.1177 10.5414 14.0337C10.6202 14.0232 10.7515 14.0074 10.9511 14.0074H13.3672C14.2549 14.0074 14.9535 14.2648 15.4997 14.7953L15.5155 14.811C16.046 15.2995 16.3086 15.8983 16.3086 16.6389C16.3086 17.6736 16.0827 18.4142 15.6363 18.8501C15.2161 19.2861 14.4597 19.5014 13.404 19.5014Z" fill="white"/>
<path d="M33.6885 12.343L33.678 12.3167C33.4364 11.7705 33.1843 11.3713 32.9007 11.0876L32.8849 11.0719C32.4805 10.699 31.9868 10.5046 31.409 10.5046C30.805 10.5046 30.285 10.6885 29.8648 11.0561L29.8543 11.0667C29.5339 11.3608 29.2765 11.781 29.0717 12.3482L22.0439 30.2747H25.9097L27.2281 26.6243L31.3827 16.3085L35.5006 26.6243L36.8242 30.2747H40.6847L33.6885 12.343Z" fill="white"/>
<path d="M75.235 10.6464V23.3153L66.705 12.0331C66.3269 11.4658 66.017 11.1034 65.7281 10.8881C65.3919 10.6359 64.9875 10.5046 64.5305 10.5046C63.7794 10.5046 63.375 10.8303 63.1754 11.0982C62.918 11.4396 62.792 11.9228 62.792 12.5741V30.2747H66.4634V17.338L74.9671 28.6412C75.3242 29.1664 75.6184 29.5078 75.8862 29.7022C76.2434 29.9753 76.6741 30.1119 77.1678 30.1119C77.8664 30.1119 78.2708 29.781 78.4862 29.5026C78.7488 29.1769 78.8749 28.7147 78.8749 28.0949V10.6464H75.235Z" fill="white"/>
<path d="M62.3408 9.73788L62.3356 9.70111C62.0152 7.43732 60.014 6.63895 58.5643 6.48138C58.286 0.409592 54.9874 -0.378266 54.8404 -0.409781L54.8141 -0.415038C54.0578 -0.546349 53.1701 -0.609375 52.1774 -0.609375C50.1447 -0.609375 48.3431 -0.341509 48.2171 -0.320499C46.0794 -0.0263641 45.6487 2.80994 45.5594 4.04951C44.8976 4.06527 43.8681 4.09153 43.7053 4.09678H43.6685C42.4447 4.20183 41.8774 4.85838 41.7461 5.03696C40.8269 6.11896 41.2524 7.50034 41.2681 7.56337L41.2734 7.58438C41.5413 8.33548 42.056 9.08657 42.8019 9.84291C42.2871 11.1823 42.0245 12.6687 42.0245 14.297C42.0245 17.212 42.8386 19.9328 44.2515 21.7606C45.8693 23.8353 48.3169 24.9804 51.1427 24.9804C53.9737 24.9804 56.4214 23.8353 58.0338 21.7606C59.4678 19.9328 60.2924 17.212 60.2924 14.297C60.2924 14.0291 60.2819 13.7665 60.2661 13.5038C62.4669 11.7758 62.3461 9.84292 62.3408 9.73788ZM55.3026 19.5231C54.4359 20.9045 52.96 21.6661 51.1532 21.6661C49.3516 21.6661 47.8862 20.9045 47.0353 19.5231C46.2895 18.3308 45.843 16.3769 45.843 14.2917C45.843 13.5616 45.9008 12.8736 46.0163 12.2328C46.2947 12.4008 46.5836 12.5637 46.8882 12.7317C49.1415 13.9661 51.1952 14.7119 51.2792 14.7434L51.295 14.7487C52.44 15.1268 53.6533 15.3212 54.8929 15.3212C55.5389 15.3212 56.0852 15.2687 56.4896 15.2109C56.3793 16.9389 55.9539 18.5094 55.3026 19.5231ZM60.1243 12.0909C59.9615 12.2643 59.7671 12.4376 59.5413 12.6109C59.3627 12.7528 59.1579 12.8946 58.932 13.0311C58.6064 13.236 58.2334 13.4303 57.808 13.6194C57.6084 13.7087 57.3878 13.7927 57.1619 13.8768C57.0884 13.903 57.0201 13.9293 56.9466 13.9556C56.8993 13.9661 56.747 14.0028 56.5159 14.0396C56.1535 14.0974 55.5862 14.1709 54.8929 14.1709C53.7741 14.1709 52.6869 13.9976 51.6627 13.6614C51.5314 13.6142 49.5512 12.8788 47.4397 11.7233C47.0405 11.5027 46.6624 11.2873 46.3105 11.0667C46.1161 10.9459 45.927 10.8251 45.7484 10.7096C45.5594 10.5835 45.3703 10.4574 45.197 10.3314C44.8818 10.1055 44.5877 9.87969 44.3198 9.65384C44.1412 9.50152 43.9731 9.35444 43.8156 9.20212C43.6422 9.0393 43.4847 8.87122 43.3376 8.70839C42.8806 8.19891 42.5602 7.69467 42.3817 7.21145C42.3554 7.12216 42.1611 6.33431 42.6495 5.7723L42.6653 5.75654L42.6863 5.71977C42.7283 5.66725 43.033 5.31534 43.763 5.24706C44.6559 5.22605 46.0058 5.18929 46.1214 5.18929H46.6886H46.6991V5.18403L46.6939 4.61152C46.6939 4.57475 46.7149 1.04513 48.3799 0.819281H48.3904C48.4062 0.814028 50.2077 0.546161 52.1774 0.546161C53.1018 0.546161 53.9159 0.603931 54.604 0.719484C54.6723 0.740493 55.2711 0.924322 55.8909 1.64915C56.5317 2.395 57.2932 3.84992 57.4141 6.56016C57.4193 6.71773 57.4246 6.87531 57.4298 7.03813L57.4403 7.55811V7.61064H57.4823L58.0128 7.60538H58.0181C58.0443 7.60538 58.1494 7.6054 58.307 7.62116C58.6116 7.64742 59.1158 7.72094 59.6201 7.92579C60.5392 8.30396 61.054 8.92899 61.1905 9.83766C61.1905 9.9217 61.1853 10.4995 60.7756 11.2296C60.6285 11.4869 60.4184 11.7811 60.1243 12.0909Z" fill="white"/>
<path d="M46.7574 5.67773L46.3057 5.70399C49.0579 8.91321 52.4352 9.58027 52.4352 9.58027C53.013 9.51724 53.3859 8.91846 53.3859 8.91846C48.3068 7.67889 46.7574 5.67773 46.7574 5.67773Z" fill="white"/>
<path d="M56.8105 8.8556C56.9261 8.96065 57.1572 8.97641 57.1572 8.97641C57.8505 8.7348 57.903 7.90492 57.903 7.90492C57.7402 7.88916 57.5406 7.88916 57.5406 7.88916C57.4093 8.54046 56.8105 8.8556 56.8105 8.8556Z" fill="white"/>
<path d="M54.2577 1.09228C52.9288 0.782387 49.1943 1.13955 49.1943 1.13955C54.5781 1.78034 55.0823 4.0704 55.0823 4.0704C55.5392 2.17428 54.2577 1.09228 54.2577 1.09228Z" fill="white"/>
</g>
<defs>
<clipPath id="clip0_2370_6774">
<rect width="84.094" height="40.2189" fill="white" transform="translate(0.75)"/>
</clipPath>
</defs>
</svg>
